<svg id="icons" xmlns="http://www.w3.org/2000/svg" xmlns:xlink="http://www.w3.org/1999/xlink" viewBox="0 0 500 500"><defs><style>.cls-1{fill:url(#linear-gradient);}.cls-2{fill:url(#linear-gradient-2);}.cls-3{fill:#fff;}</style><linearGradient id="linear-gradient" x1="446.57" y1="53.66" x2="-21.05" y2="521.28" gradientTransform="translate(499.49 -0.59) rotate(89.83)" gradientUnits="userSpaceOnUse"><stop offset="0.01" stop-color="#4757a6"/><stop offset="0.18" stop-color="#4a56a6"/><stop offset="0.29" stop-color="#5253a4"/><stop offset="0.37" stop-color="#604da1"/><stop offset="0.45" stop-color="#75459e"/><stop offset="0.52" stop-color="#8f3a99"/><stop offset="0.58" stop-color="#af2d93"/><stop offset="0.62" stop-color="#c8238f"/><stop offset="0.76" stop-color="#ee323b"/><stop offset="1" stop-color="#ffc65a"/></linearGradient><linearGradient id="linear-gradient-2" x1="446.6" y1="53.69" x2="-21.02" y2="521.3" gradientTransform="matrix(1, 0, 0, 1, 0, 0)" xlink:href="#linear-gradient"/></defs><title>icon</title><g id="instagram"><ellipse class="cls-1" cx="250.04" cy="250.19" rx="181.39" ry="181.43" transform="translate(-0.89 499.49) rotate(-89.83)"/><path class="cls-2" d="M250.26,461.19a3.78,3.78,0,0,1,0-7.55,206.32,206.32,0,0,0,32.36-2.6,3.78,3.78,0,1,1,1.2,7.46,211.87,211.87,0,0,1-33.55,2.69Zm65.06-10.48a3.78,3.78,0,0,1-1.19-7.37,202.75,202.75,0,0,0,44-20.73,3.78,3.78,0,1,1,4,6.4,210,210,0,0,1-45.61,21.5A3.86,3.86,0,0,1,315.32,450.71ZM135.71,426.84a3.84,3.84,0,0,1-2.09-.63A211,211,0,0,1,55.71,332.6a3.78,3.78,0,0,1,7-3,203.43,203.43,0,0,0,75.13,90.26,3.78,3.78,0,0,1-2.09,6.93Zm287.1-58.38a3.78,3.78,0,0,1-3.15-5.87,202.46,202.46,0,0,0,33.85-112.4,3.78,3.78,0,1,1,7.56,0A210,210,0,0,1,426,366.77,3.77,3.77,0,0,1,422.81,368.46ZM42.85,248.9h-.09A3.79,3.79,0,0,1,39.07,245a211.47,211.47,0,0,1,7.2-49.89,3.78,3.78,0,0,1,7.3,2,203.74,203.74,0,0,0-6.94,48.11A3.78,3.78,0,0,1,42.85,248.9Zm397.87-76.26a3.78,3.78,0,0,1-3.48-2.29,201.9,201.9,0,0,0-15.08-28.71,3.78,3.78,0,0,1,6.39-4,211.27,211.27,0,0,1,15.65,29.78,3.78,3.78,0,0,1-2,5A3.66,3.66,0,0,1,440.72,172.64ZM61.06,168.77a3.71,3.71,0,0,1-1.55-.34,3.77,3.77,0,0,1-1.89-5A212,212,0,0,1,73.89,134a3.78,3.78,0,1,1,6.3,4.17,204.24,204.24,0,0,0-15.68,28.42A3.79,3.79,0,0,1,61.06,168.77ZM405.52,117a3.78,3.78,0,0,1-2.83-1.28A204.48,204.48,0,0,0,366.42,83.3a3.78,3.78,0,0,1,4.33-6.2,212.08,212.08,0,0,1,37.6,33.58,3.78,3.78,0,0,1-2.83,6.28ZM168.91,63.23A3.78,3.78,0,0,1,167.43,56,209.69,209.69,0,0,1,250,39.19a212.72,212.72,0,0,1,38.44,3.5,3.78,3.78,0,0,1-1.37,7.43A205.79,205.79,0,0,0,250,46.75a202.33,202.33,0,0,0-79.65,16.18A3.84,3.84,0,0,1,168.91,63.23Z"/><path class="cls-3" d="M362.2,193.44c-1.53-15-7.28-28.27-18.43-38.9-11.73-11.2-26.07-16.14-41.8-17-26.79-1.46-90.41-2.38-112.75,1.27-25.53,4.15-42.26,19-49.32,44.26-5.43,19.39-4.35,108.78-1.18,128,4.32,26.21,19.81,43,45.8,49.71,18,4.64,106.35,4.05,126.18.83,26.24-4.24,43.12-19.64,49.94-45.58C365.85,296.1,364,211.39,362.2,193.44Zm-21,113.89c-3.05,19.91-16.27,32.24-36.28,34.43-18.39,2-100.51,3.12-117.57-1.65-16.31-4.56-25.64-15.77-28.35-32.19-2.59-15.69-3.23-94.05,0-115,3-19.74,16.22-32,36.13-34.28,20.19-2.26,92.86-2.51,112.21.46,19.87,3.05,32.19,16.29,34.37,36.34C343.72,214.11,344.3,287.22,341.22,307.33ZM250.09,191.77a58.45,58.45,0,1,0,58.42,58.47A58.44,58.44,0,0,0,250.09,191.77Zm-.4,96.2a37.8,37.8,0,1,1,38.14-37.46A37.79,37.79,0,0,1,249.69,288Zm74.82-98.41a13.69,13.69,0,1,1-13.65-13.72A13.68,13.68,0,0,1,324.51,189.56Z"/><path class="cls-3" d="M362.2,193.44c-1.53-15-7.28-28.27-18.43-38.9-11.73-11.2-26.07-16.14-41.8-17-26.79-1.46-90.41-2.38-112.75,1.27-25.53,4.15-42.26,19-49.32,44.26-5.43,19.39-4.35,108.78-1.18,128,4.32,26.21,19.81,43,45.8,49.71,18,4.64,106.35,4.05,126.18.83,26.24-4.24,43.12-19.64,49.94-45.58C365.85,296.1,364,211.39,362.2,193.44Zm-21,113.89c-3.05,19.91-16.27,32.24-36.28,34.43-18.39,2-100.51,3.12-117.57-1.65-16.31-4.56-25.64-15.77-28.35-32.19-2.59-15.69-3.23-94.05,0-115,3-19.74,16.22-32,36.13-34.28,20.19-2.26,92.86-2.51,112.21.46,19.87,3.05,32.19,16.29,34.37,36.34C343.72,214.11,344.3,287.22,341.22,307.33ZM250.09,191.77a58.45,58.45,0,1,0,58.42,58.47A58.44,58.44,0,0,0,250.09,191.77Zm-.4,96.2a37.8,37.8,0,1,1,38.14-37.46A37.79,37.79,0,0,1,249.69,288Zm74.82-98.41a13.69,13.69,0,1,1-13.65-13.72A13.68,13.68,0,0,1,324.51,189.56Z"/></g></svg>