<svg id="icons" xmlns="http://www.w3.org/2000/svg" viewBox="0 0 500 500"><defs><style>.cls-1{fill:#f05144;}.cls-2{fill:#fff;}</style></defs><title>icon</title><g id="gplus"><ellipse class="cls-1" cx="249.97" cy="250.09" rx="181.39" ry="181.42" transform="translate(-0.88 499.3) rotate(-89.83)"/><path class="cls-1" d="M250.19,461.1a3.78,3.78,0,0,1,0-7.56,206.32,206.32,0,0,0,32.36-2.6,3.78,3.78,0,0,1,1.2,7.47,214.25,214.25,0,0,1-33.55,2.69Zm65.06-10.49a3.78,3.78,0,0,1-1.19-7.37,202.29,202.29,0,0,0,44-20.73,3.78,3.78,0,0,1,4,6.4,210.39,210.39,0,0,1-45.62,21.51A3.73,3.73,0,0,1,315.25,450.61ZM135.64,426.74a3.81,3.81,0,0,1-2.09-.63A211,211,0,0,1,55.64,332.5a3.78,3.78,0,0,1,7-2.95,203.43,203.43,0,0,0,75.13,90.26,3.78,3.78,0,0,1-2.09,6.93Zm287.1-58.38a3.73,3.73,0,0,1-2.09-.63,3.78,3.78,0,0,1-1.06-5.24,202.44,202.44,0,0,0,33.85-112.4,3.78,3.78,0,1,1,7.56,0,210,210,0,0,1-35.11,116.58A3.77,3.77,0,0,1,422.74,368.36ZM42.78,248.8h-.09A3.78,3.78,0,0,1,39,244.93,211.48,211.48,0,0,1,46.2,195a3.78,3.78,0,0,1,7.3,2,203.23,203.23,0,0,0-6.94,48.11A3.78,3.78,0,0,1,42.78,248.8Zm397.87-76.26a3.78,3.78,0,0,1-3.48-2.29,202.93,202.93,0,0,0-15.08-28.71,3.78,3.78,0,0,1,6.38-4,209.21,209.21,0,0,1,15.65,29.78,3.78,3.78,0,0,1-2,5A3.66,3.66,0,0,1,440.65,172.54ZM61,168.67a3.78,3.78,0,0,1-3.44-5.34,212,212,0,0,1,16.27-29.47,3.78,3.78,0,1,1,6.3,4.17,204.82,204.82,0,0,0-15.68,28.42A3.79,3.79,0,0,1,61,168.67Zm344.46-51.81a3.77,3.77,0,0,1-2.84-1.28A204.46,204.46,0,0,0,366.35,83.2,3.78,3.78,0,0,1,370.68,77a211.63,211.63,0,0,1,37.6,33.57,3.78,3.78,0,0,1-2.83,6.28ZM168.84,63.13a3.78,3.78,0,0,1-1.48-7.25A209.68,209.68,0,0,1,250,39.1a212.8,212.8,0,0,1,38.44,3.49A3.78,3.78,0,0,1,287,50,205.79,205.79,0,0,0,250,46.65a202.33,202.33,0,0,0-79.65,16.18A3.66,3.66,0,0,1,168.84,63.13Z"/><path class="cls-2" d="M207.44,233.54c0,.49-.08.91-.08,1.31,0,10.06,0,31.84,0,31.84h44.19c0,3.28-3.89,16.46-16.23,24.83-7.24,4.89-15.37,7.16-24,7.71a48.24,48.24,0,0,1-17.9-2.08,49.72,49.72,0,0,1-34-42.9,47.1,47.1,0,0,1,1-15c5.48-24,28.22-41.82,54.29-38C226.27,203,232.91,207.83,239,213c8-8,15.89-15.88,24-24-2-1.42-6.54-6.05-14.63-10.73A78.55,78.55,0,0,0,209.2,167.6c-2.64,0-5.27.12-7.9.23a65,65,0,0,0-13.59,2.11,82.73,82.73,0,0,0-62.54,75.39,77.65,77.65,0,0,0,1.74,22.22c4.65,20.44,15.37,36.93,32.29,49.31a80.53,80.53,0,0,0,44.06,15.6,87.52,87.52,0,0,0,27.05-2.66c16.54-4.33,30.28-12.95,40.6-26.69,14.94-19.89,18.57-45.37,14.16-69.57Z"/><polygon class="cls-2" points="384.88 234.62 356.91 234.62 356.91 206.65 356.91 205.82 356.09 205.82 335.2 205.82 334.38 205.82 334.38 206.65 334.38 234.62 306.42 234.62 305.6 234.62 305.6 235.42 305.6 256.31 305.6 257.14 306.42 257.14 334.38 257.14 334.38 285.11 334.38 285.92 335.2 285.92 356.09 285.92 356.91 285.92 356.91 285.11 356.91 257.14 384.88 257.14 385.71 257.14 385.71 256.31 385.71 235.42 385.71 234.62 384.88 234.62"/></g></svg>