<svg id="icons" xmlns="http://www.w3.org/2000/svg" viewBox="0 0 500 500"><defs><style>.cls-1{fill:#ef3f38;}.cls-2{fill:#fff;fill-rule:evenodd;}</style></defs><title>icon</title><g id="youtube"><ellipse class="cls-1" cx="249.97" cy="250.09" rx="181.39" ry="181.43" transform="translate(-0.87 499.32) rotate(-89.83)"/><path class="cls-1" d="M250.19,461.1a3.78,3.78,0,0,1,0-7.56,206.32,206.32,0,0,0,32.36-2.6,3.78,3.78,0,0,1,1.2,7.47,214.25,214.25,0,0,1-33.55,2.69Zm65.06-10.49a3.78,3.78,0,0,1-1.19-7.37,202.29,202.29,0,0,0,44-20.73,3.78,3.78,0,0,1,4,6.4,210.39,210.39,0,0,1-45.62,21.51A3.73,3.73,0,0,1,315.25,450.61ZM135.64,426.74a3.81,3.81,0,0,1-2.09-.63A211,211,0,0,1,55.64,332.5a3.78,3.78,0,0,1,7-2.95,203.43,203.43,0,0,0,75.13,90.26,3.78,3.78,0,0,1-2.09,6.93Zm287.1-58.38a3.73,3.73,0,0,1-2.09-.63,3.78,3.78,0,0,1-1.06-5.24,202.44,202.44,0,0,0,33.85-112.4,3.78,3.78,0,1,1,7.56,0,210,210,0,0,1-35.11,116.58A3.77,3.77,0,0,1,422.74,368.36ZM42.78,248.8h-.09A3.78,3.78,0,0,1,39,244.93,212,212,0,0,1,46.19,195a3.79,3.79,0,0,1,7.31,2,203.23,203.23,0,0,0-6.94,48.11A3.78,3.78,0,0,1,42.78,248.8Zm397.87-76.26a3.78,3.78,0,0,1-3.48-2.29,202.93,202.93,0,0,0-15.08-28.71,3.78,3.78,0,0,1,6.38-4,209.21,209.21,0,0,1,15.65,29.78,3.78,3.78,0,0,1-2,5A3.66,3.66,0,0,1,440.65,172.54ZM61,168.67a3.78,3.78,0,0,1-3.44-5.34,211,211,0,0,1,16.27-29.47,3.78,3.78,0,1,1,6.3,4.17,203.78,203.78,0,0,0-15.68,28.42A3.8,3.8,0,0,1,61,168.67Zm344.46-51.81a3.77,3.77,0,0,1-2.84-1.28A204.46,204.46,0,0,0,366.35,83.2,3.78,3.78,0,0,1,370.68,77a211.63,211.63,0,0,1,37.6,33.57,3.78,3.78,0,0,1-2.83,6.28ZM168.84,63.13a3.78,3.78,0,0,1-1.48-7.25A209.68,209.68,0,0,1,250,39.1a212.8,212.8,0,0,1,38.44,3.49A3.78,3.78,0,0,1,287,50,205.79,205.79,0,0,0,250,46.65a202.33,202.33,0,0,0-79.65,16.18A3.66,3.66,0,0,1,168.84,63.13Z"/><path class="cls-2" d="M165.39,320.39A24.8,24.8,0,0,1,149,304.51c-7.08-19.48-9.17-100.93,4.46-117a26.44,26.44,0,0,1,17.81-9.46c36.74-3.95,150.31-3.38,163.39,1.33a25.6,25.6,0,0,1,16.07,15.45c7.75,20.13,8,93.36-1,112.75a24.89,24.89,0,0,1-11.52,11.63C324.51,326.42,183.42,326.33,165.39,320.39Zm58.37-38.18,66.17-34.31-66.17-34.52Z"/></g></svg>