<svg id="icons" xmlns="http://www.w3.org/2000/svg" viewBox="0 0 500 500"><defs><style>.cls-1{fill:#1fa5d4;}.cls-2{fill:#fff;fill-rule:evenodd;}</style></defs><title>icon</title><g id="twitter"><ellipse class="cls-1" cx="249.97" cy="250.1" rx="181.39" ry="181.42" transform="translate(-0.88 499.31) rotate(-89.83)"/><path class="cls-1" d="M250.19,461.1a3.78,3.78,0,0,1,0-7.56A206.31,206.31,0,0,0,282.54,451a3.78,3.78,0,1,1,1.2,7.46,214.25,214.25,0,0,1-33.55,2.69Zm65.06-10.49a3.78,3.78,0,0,1-1.19-7.37,202.29,202.29,0,0,0,44-20.73,3.78,3.78,0,0,1,4,6.4,209.92,209.92,0,0,1-45.62,21.51A3.73,3.73,0,0,1,315.25,450.61ZM135.64,426.74a3.73,3.73,0,0,1-2.09-.63,211,211,0,0,1-77.91-93.6,3.78,3.78,0,1,1,7-3,203.43,203.43,0,0,0,75.13,90.26,3.78,3.78,0,0,1-2.09,6.93Zm287.1-58.38a3.73,3.73,0,0,1-2.09-.63,3.77,3.77,0,0,1-1.06-5.23,202.5,202.5,0,0,0,33.85-112.41,3.78,3.78,0,0,1,7.56,0,210,210,0,0,1-35.11,116.58A3.77,3.77,0,0,1,422.74,368.36ZM42.78,248.8h-.09A3.78,3.78,0,0,1,39,244.93,211.9,211.9,0,0,1,46.19,195a3.79,3.79,0,0,1,7.31,2,203.07,203.07,0,0,0-6.94,48.1A3.78,3.78,0,0,1,42.78,248.8Zm397.87-76.25a3.78,3.78,0,0,1-3.48-2.3,202.93,202.93,0,0,0-15.08-28.71,3.77,3.77,0,1,1,6.38-4,209.64,209.64,0,0,1,15.65,29.77,3.78,3.78,0,0,1-2,5A3.67,3.67,0,0,1,440.65,172.55ZM61,168.67a3.94,3.94,0,0,1-1.56-.33,3.79,3.79,0,0,1-1.88-5,211.56,211.56,0,0,1,16.27-29.47,3.78,3.78,0,0,1,6.3,4.17,204.82,204.82,0,0,0-15.68,28.42A3.79,3.79,0,0,1,61,168.67Zm344.46-51.81a3.77,3.77,0,0,1-2.84-1.28A204.46,204.46,0,0,0,366.35,83.2,3.78,3.78,0,0,1,370.68,77a212,212,0,0,1,37.6,33.57,3.77,3.77,0,0,1-2.83,6.28ZM168.84,63.14a3.78,3.78,0,0,1-1.48-7.26A209.68,209.68,0,0,1,250,39.1a212.8,212.8,0,0,1,38.44,3.49A3.78,3.78,0,0,1,287,50,205.78,205.78,0,0,0,250,46.66a202.32,202.32,0,0,0-79.65,16.17A3.67,3.67,0,0,1,168.84,63.14Z"/><path class="cls-2" d="M216.68,307.15c-22.61-.8-36.74-17-40.48-30.19a43.44,43.44,0,0,0,18.65-.56,5.5,5.5,0,0,0,.63-.29c-12.25-2.85-21.7-9.4-28.26-20A42.25,42.25,0,0,1,160.85,233a42.81,42.81,0,0,0,19.36,5.27c-9.21-6.63-15.38-15.3-17.91-26.38A43.07,43.07,0,0,1,167,180.4c23.56,27.74,53.37,42.95,89.73,45.45-.26-1.72-.52-3.23-.7-4.76a42.21,42.21,0,0,1,6.36-28.44c6.92-10.85,16.8-17.59,29.5-19.66,14.63-2.4,27.41,1.77,38.09,12.12a2.19,2.19,0,0,0,2.31.69,87.68,87.68,0,0,0,25.31-9.72,4.56,4.56,0,0,1,.58-.3s.11,0,.29,0a44.57,44.57,0,0,1-18.63,23.68A83.35,83.35,0,0,0,364,192.91l.18.19c-1.67,2.18-3.27,4.41-5,6.53a85,85,0,0,1-15.82,15,1.48,1.48,0,0,0-.71,1.37,118.82,118.82,0,0,1-.82,19.32,127.73,127.73,0,0,1-11.21,38.73,125.25,125.25,0,0,1-23.51,34.29,116.27,116.27,0,0,1-59.79,33.31,130,130,0,0,1-24.24,2.88,122.83,122.83,0,0,1-69.61-18.68c-.28-.16-.55-.36-1-.67a87.88,87.88,0,0,0,43.52-6A86.13,86.13,0,0,0,216.68,307.15Z"/></g></svg>