<svg id="icons" xmlns="http://www.w3.org/2000/svg" viewBox="0 0 500 500"><defs><style>.cls-1{fill:#2a52a4;}.cls-2{fill:#fff;fill-rule:evenodd;}</style></defs><title>icon</title><g id="fb"><path class="cls-1" d="M431.37,250.17A181.28,181.28,0,0,1,292.52,426.44,176,176,0,0,1,250,431.58c-4.08,0-8.09-.15-12.09-.45-94.56-6.2-169.32-84.89-169.32-181C68.55,149.94,149.81,68.76,250,68.76S431.37,149.94,431.37,250.17Z"/><path class="cls-1" d="M288.36,42.61A216.35,216.35,0,0,0,250,39.13a210.18,210.18,0,0,0-82.61,16.78,3.81,3.81,0,0,0-2,5,3.71,3.71,0,0,0,3.48,2.27,3.34,3.34,0,0,0,1.43-.3A204,204,0,0,1,287,50.09a3.8,3.8,0,1,0,1.36-7.48Zm119.88,68a211.3,211.3,0,0,0-37.57-33.56,3.77,3.77,0,0,0-5.29.91,3.68,3.68,0,0,0,1,5.21,207.9,207.9,0,0,1,36.2,32.43,3.92,3.92,0,0,0,2.87,1.28,3.78,3.78,0,0,0,2.8-6.27ZM79.06,132.86a3.69,3.69,0,0,0-5.21,1.06A203.56,203.56,0,0,0,57.59,163.4a3.71,3.71,0,0,0,1.82,5,4.08,4.08,0,0,0,1.59.3,3.91,3.91,0,0,0,3.47-2.19,196.44,196.44,0,0,1,15.65-28.42A3.78,3.78,0,0,0,79.06,132.86Zm365,34.47a203.66,203.66,0,0,0-15.65-29.78,3.83,3.83,0,0,0-5.21-1.21,3.78,3.78,0,0,0-1.14,5.21,200,200,0,0,1,15.05,28.73,3.92,3.92,0,0,0,3.47,2.34,4.88,4.88,0,0,0,1.51-.3A3.83,3.83,0,0,0,444.07,167.33ZM50.87,192.42a3.84,3.84,0,0,0-4.69,2.65A217.46,217.46,0,0,0,39,245a3.87,3.87,0,0,0,3.7,3.93h.08a3.84,3.84,0,0,0,3.78-3.71A202.54,202.54,0,0,1,53.51,197,3.82,3.82,0,0,0,50.87,192.42Zm406.35,54a3.75,3.75,0,0,0-3.78,3.78,202.57,202.57,0,0,1-33.86,112.4,3.75,3.75,0,0,0,1.06,5.21,3.35,3.35,0,0,0,2,.61,3.58,3.58,0,0,0,3.17-1.66A209.93,209.93,0,0,0,461,250.17,3.8,3.8,0,0,0,457.22,246.39ZM137.72,419.86a203.39,203.39,0,0,1-75.14-90.25,3.76,3.76,0,0,0-4.91-2,3.86,3.86,0,0,0-2,5,211.46,211.46,0,0,0,77.93,93.65,4,4,0,0,0,2.12.61,3.61,3.61,0,0,0,3.09-1.74A3.71,3.71,0,0,0,137.72,419.86Zm225.47,3.93a3.7,3.7,0,0,0-5.21-1.2,203.51,203.51,0,0,1-43.92,20.71,3.78,3.78,0,0,0-2.42,4.76,3.89,3.89,0,0,0,3.63,2.64,3,3,0,0,0,1.13-.22A211.57,211.57,0,0,0,362.06,429,3.79,3.79,0,0,0,363.19,423.79ZM282.54,451a201.11,201.11,0,0,1-32.35,2.57,3.78,3.78,0,0,0-3.78,3.78,3.74,3.74,0,0,0,3.78,3.77,216,216,0,0,0,33.56-2.64,3.79,3.79,0,0,0-1.21-7.48Z"/><path class="cls-2" d="M292.59,216.69c-.3,11.26-.45,37.34-.45,37.34H344c-2.34,18-4.61,35.3-6.88,52.68H292.52V426.44A176,176,0,0,1,250,431.58c-4.08,0-8.09-.15-12.09-.45V306.56H193.2V254h45V250.1c0-10.59-.23-21.09,0-31.67a151.71,151.71,0,0,1,1.66-20.19c2.8-16,10.21-29.55,23.59-39.23,11.71-8.39,25.09-11.79,39.3-12.09,9.3-.23,18.52.23,27.82.61,5.06.3,10.13,1,14.89,1.43v47h-3.71c-9.07,0-18.06-.23-27.13.07C302.19,196.51,293.05,201.19,292.59,216.69Z"/></g></svg>