<svg xmlns="http://www.w3.org/2000/svg" xmlns:xlink="http://www.w3.org/1999/xlink" viewBox="0 0 1000 500"><defs><style>.cls-2{fill:#fbeef5}.cls-6{opacity:.55;mix-blend-mode:color-dodge}.cls-65{fill:#e5c5de}</style><clipPath id="clip-path"><path fill="none" d="M-9.61-89.74H1009.6v679.48H-9.61z"/></clipPath><linearGradient id="linear-gradient" x1="1359.57" y1="884.23" x2="-204.43" y2="-269.77" gradientUnits="userSpaceOnUse"><stop offset="0" stop-color="#12aa4b"/><stop offset="1" stop-color="#162b17"/></linearGradient><radialGradient id="radial-gradient" cx="860.71" cy="612.6" r="1122.51" gradientUnits="userSpaceOnUse"><stop offset=".08" stop-color="#fbaa19"/><stop offset=".1" stop-color="#faa51a" stop-opacity=".94"/><stop offset=".36" stop-color="#f47320" stop-opacity=".31"/><stop offset=".47" stop-color="#f15e22" stop-opacity=".05"/><stop offset=".69" stop-color="#df838e" stop-opacity=".02"/><stop offset="1" stop-color="#d695c2" stop-opacity="0"/></radialGradient><linearGradient id="linear-gradient-2" x1="547.17" y1="299.22" x2="649.03" y2="401.08" gradientUnits="userSpaceOnUse"><stop offset="0" stop-color="#b94590"/><stop offset=".99" stop-color="#6269b0"/></linearGradient><linearGradient id="linear-gradient-3" x1="675.01" y1="287" x2="794.6" y2="406.59" xlink:href="#linear-gradient-2"/><linearGradient id="linear-gradient-4" x1="747.29" y1="78.13" x2="874.68" y2="205.52" xlink:href="#linear-gradient-2"/><linearGradient id="linear-gradient-5" x1="640" y1="139.96" x2="780.17" y2="280.13" xlink:href="#linear-gradient-2"/><linearGradient id="linear-gradient-6" x1="583.92" y1="196.33" x2="723.32" y2="335.73" xlink:href="#linear-gradient-2"/><linearGradient id="linear-gradient-7" x1="483.54" y1="420.35" x2="540.56" y2="477.38" xlink:href="#linear-gradient-2"/><linearGradient id="linear-gradient-8" x1="427.46" y1="372.54" x2="536.78" y2="481.85" xlink:href="#linear-gradient-2"/><linearGradient id="linear-gradient-9" x1="402.99" y1="500.03" x2="572.5" y2="669.54" xlink:href="#linear-gradient-2"/><linearGradient id="linear-gradient-10" x1="728.2" y1="329.5" x2="824.45" y2="425.74" xlink:href="#linear-gradient-2"/><linearGradient id="linear-gradient-11" x1="863.43" y1="194.21" x2="960.69" y2="291.46" xlink:href="#linear-gradient-2"/><linearGradient id="linear-gradient-12" x1="817.59" y1="381.57" x2="977.71" y2="541.69" xlink:href="#linear-gradient-2"/><linearGradient id="linear-gradient-13" x1="580.22" y1="382.14" x2="699.4" y2="501.32" xlink:href="#linear-gradient-2"/><linearGradient id="linear-gradient-14" x1="688.62" y1="510.56" x2="801.01" y2="622.94" xlink:href="#linear-gradient-2"/><linearGradient id="linear-gradient-15" x1="558.51" y1="221.85" x2="670.6" y2="333.94" xlink:href="#linear-gradient-2"/><linearGradient id="linear-gradient-16" x1="640.21" y1="140.04" x2="723.12" y2="222.95" xlink:href="#linear-gradient-2"/><linearGradient id="linear-gradient-17" x1="618.74" y1="160.14" x2="731.63" y2="273.03" xlink:href="#linear-gradient-2"/><linearGradient id="linear-gradient-18" x1="801.04" y1="142.77" x2="858.66" y2="200.4" xlink:href="#linear-gradient-2"/><linearGradient id="linear-gradient-19" x1="531.37" y1="314.16" x2="633.15" y2="415.94" xlink:href="#linear-gradient-2"/><linearGradient id="linear-gradient-20" x1="462.94" y1="440.79" x2="552.46" y2="530.32" xlink:href="#linear-gradient-2"/><linearGradient id="linear-gradient-21" x1="616.72" y1="399.73" x2="709.23" y2="492.24" xlink:href="#linear-gradient-2"/><linearGradient id="linear-gradient-22" x1="665.73" y1="533.11" x2="777.92" y2="645.3" xlink:href="#linear-gradient-2"/><linearGradient id="linear-gradient-23" x1="947.1" y1="462.46" x2="1029.88" y2="545.25" xlink:href="#linear-gradient-2"/><linearGradient id="linear-gradient-24" x1="729.39" y1="273.69" x2="854.52" y2="398.82" xlink:href="#linear-gradient-2"/><linearGradient id="linear-gradient-25" x1="914.45" y1="334.94" x2="996.38" y2="416.86" xlink:href="#linear-gradient-2"/><linearGradient id="linear-gradient-26" x1="892.31" y1="186.41" x2="1059.14" y2="353.23" xlink:href="#linear-gradient-2"/><linearGradient id="linear-gradient-27" x1="379.08" y1="-2.72" x2="581.62" y2="199.83" xlink:href="#linear-gradient-2"/><linearGradient id="linear-gradient-28" x1="646.82" y1="2.48" x2="712.01" y2="67.67" xlink:href="#linear-gradient-2"/><linearGradient id="linear-gradient-29" x1="523.61" y1="-28.57" x2="582.17" y2="30" xlink:href="#linear-gradient-2"/><linearGradient id="linear-gradient-30" x1="441.22" y1="834.58" x2="475.53" y2="868.89" gradientTransform="rotate(49.63 1039.22 200.064)" xlink:href="#linear-gradient-2"/><linearGradient id="linear-gradient-31" x1="379.59" y1="90.08" x2="448" y2="158.49" xlink:href="#linear-gradient-2"/><linearGradient id="linear-gradient-32" x1="734.71" y1="-661.99" x2="788.58" y2="-608.12" gradientTransform="rotate(-63.48 1055.015 145.992)" xlink:href="#linear-gradient-2"/><linearGradient id="linear-gradient-33" x1="372.44" y1="208.89" x2="438.42" y2="274.87" xlink:href="#linear-gradient-2"/><linearGradient id="linear-gradient-34" x1="382.1" y1="323" x2="429.41" y2="370.32" xlink:href="#linear-gradient-2"/><linearGradient id="linear-gradient-35" x1="258.32" y1="210.31" x2="279.44" y2="231.42" xlink:href="#linear-gradient-2"/><linearGradient id="linear-gradient-36" x1="742.16" y1="1234.85" x2="763.27" y2="1255.96" gradientTransform="rotate(67.6 1045.975 410.694)" xlink:href="#linear-gradient-2"/><linearGradient id="linear-gradient-37" x1="405.74" y1="1180.26" x2="426.85" y2="1201.38" gradientTransform="rotate(67.6 1045.975 410.694)" xlink:href="#linear-gradient-2"/><linearGradient id="linear-gradient-38" x1="227.85" y1="438.07" x2="289.85" y2="500.07" xlink:href="#linear-gradient-2"/><linearGradient id="linear-gradient-39" x1="1180.57" y1="-659.01" x2="1260.93" y2="-578.65" gradientTransform="rotate(-103.85 1062.433 301.608)" xlink:href="#linear-gradient-2"/><linearGradient id="linear-gradient-40" x1="215.49" y1="293.38" x2="413.27" y2="491.16" xlink:href="#linear-gradient-2"/><linearGradient id="linear-gradient-41" x1="833.5" y1="365.8" x2="945.41" y2="477.72" xlink:href="#linear-gradient-2"/><linearGradient id="linear-gradient-42" x1="888.92" y1="504.7" x2="979.85" y2="595.62" xlink:href="#linear-gradient-2"/><linearGradient id="linear-gradient-43" x1="847.28" y1="496.19" x2="934.79" y2="583.7" xlink:href="#linear-gradient-2"/><linearGradient id="linear-gradient-44" x1="963.14" y1="431.74" x2="1053.71" y2="522.32" xlink:href="#linear-gradient-2"/><linearGradient id="linear-gradient-45" x1="658.43" y1="91.17" x2="697.21" y2="129.96" xlink:href="#linear-gradient-2"/><linearGradient id="linear-gradient-46" x1="569.57" y1="447.17" x2="753.47" y2="631.07" xlink:href="#linear-gradient-2"/><linearGradient id="linear-gradient-47" x1="508.81" y1="291.86" x2="569.98" y2="353.03" xlink:href="#linear-gradient-2"/><linearGradient id="linear-gradient-48" x1="508.67" y1="291.85" x2="590.3" y2="373.48" xlink:href="#linear-gradient-2"/><linearGradient id="linear-gradient-49" x1="729.48" y1="318.67" x2="848.2" y2="437.4" xlink:href="#linear-gradient-2"/><linearGradient id="linear-gradient-50" x1="743.21" y1="455.88" x2="816.05" y2="528.73" xlink:href="#linear-gradient-2"/><linearGradient id="linear-gradient-51" x1="817.97" y1="466.75" x2="873.77" y2="522.55" xlink:href="#linear-gradient-2"/><linearGradient id="linear-gradient-52" x1="832.92" y1="416.37" x2="906.4" y2="489.85" xlink:href="#linear-gradient-2"/><linearGradient id="linear-gradient-53" x1="762.59" y1="63.19" x2="842.64" y2="143.24" xlink:href="#linear-gradient-2"/><linearGradient id="linear-gradient-54" x1="845.47" y1="139.45" x2="979.12" y2="273.1" xlink:href="#linear-gradient-2"/><linearGradient id="linear-gradient-55" x1="758.16" y1="186.69" x2="815.25" y2="243.79" xlink:href="#linear-gradient-2"/><linearGradient id="linear-gradient-56" x1="519.41" y1="497.48" x2="631.09" y2="609.16" xlink:href="#linear-gradient-2"/><linearGradient id="linear-gradient-57" x1="683.43" y1="516.13" x2="755.9" y2="588.6" xlink:href="#linear-gradient-2"/><symbol id="New_Symbol_5" data-name="New Symbol 5" viewBox="0 0 1.85 1.85"><circle class="cls-2" cx=".93" cy=".93" r=".93"/></symbol></defs><g style="isolation:isolate"><g clip-path="url(#clip-path)" id="main"><path fill="url(#linear-gradient)" d="M-9.61-89.74H1009.6v679.48H-9.61z"/><g class="cls-6"><use width="1.85" height="1.85" transform="matrix(1.36 0 0 1.36 542.98 306.63)" xlink:href="#New_Symbol_5"/><use width="1.85" height="1.85" transform="matrix(1.36 0 0 1.36 493.7 308.68)" xlink:href="#New_Symbol_5"/><use width="1.85" height="1.85" transform="matrix(1.95 0 0 1.95 428.92 330.59)" xlink:href="#New_Symbol_5"/><use width="1.85" height="1.85" transform="matrix(2.14 0 0 2.14 428.71 346.56)" xlink:href="#New_Symbol_5"/><use width="1.85" height="1.85" transform="matrix(1.36 0 0 1.36 469.93 361.68)" xlink:href="#New_Symbol_5"/><use width="1.85" height="1.85" transform="matrix(1.36 0 0 1.36 560.52 390.49)" xlink:href="#New_Symbol_5"/><use width="1.85" height="1.85" transform="matrix(1.36 0 0 1.36 618.83 430.2)" xlink:href="#New_Symbol_5"/><use width="1.85" height="1.85" transform="matrix(1.36 0 0 1.36 641.97 487.79)" xlink:href="#New_Symbol_5"/><use width="1.85" height="1.85" transform="matrix(2.03 0 0 2.03 523.44 423.04)" xlink:href="#New_Symbol_5"/><use width="1.85" height="1.85" transform="matrix(1.36 0 0 1.36 586.66 445.72)" xlink:href="#New_Symbol_5"/><use width="1.85" height="1.85" transform="matrix(3.11 0 0 3.11 704.28 443.44)" xlink:href="#New_Symbol_5"/><use width="1.85" height="1.85" transform="matrix(1.36 0 0 1.36 822.14 431.95)" xlink:href="#New_Symbol_5"/><use width="1.85" height="1.85" transform="matrix(1.36 0 0 1.36 911.98 334.17)" xlink:href="#New_Symbol_5"/><use width="1.85" height="1.85" transform="matrix(1.36 0 0 1.36 871.91 310.45)" xlink:href="#New_Symbol_5"/><use width="1.85" height="1.85" transform="matrix(1.36 0 0 1.36 872.32 266.67)" xlink:href="#New_Symbol_5"/><use width="1.85" height="1.85" transform="matrix(2.77 0 0 2.77 809.92 275.88)" xlink:href="#New_Symbol_5"/><use width="1.85" height="1.85" transform="matrix(4.03 0 0 4.03 808.74 286.47)" xlink:href="#New_Symbol_5"/><use width="1.85" height="1.85" transform="matrix(1.36 0 0 1.36 766.98 286.03)" xlink:href="#New_Symbol_5"/><use width="1.85" height="1.85" transform="matrix(1.36 0 0 1.36 734.09 228.6)" xlink:href="#New_Symbol_5"/><use width="1.85" height="1.85" transform="matrix(1.36 0 0 1.36 681.51 178.23)" xlink:href="#New_Symbol_5"/><use width="1.85" height="1.85" transform="matrix(1.36 0 0 1.36 623.84 158.37)" xlink:href="#New_Symbol_5"/><use width="1.85" height="1.85" transform="matrix(1.36 0 0 1.36 597.13 141.43)" xlink:href="#New_Symbol_5"/><use width="1.85" height="1.85" transform="matrix(1.36 0 0 1.36 423.96 196.08)" xlink:href="#New_Symbol_5"/><use width="1.85" height="1.85" transform="matrix(1.36 0 0 1.36 356.64 176.08)" xlink:href="#New_Symbol_5"/><use width="1.85" height="1.85" transform="matrix(1.36 0 0 1.36 453.45 82.93)" xlink:href="#New_Symbol_5"/><use width="1.85" height="1.85" transform="matrix(1.36 0 0 1.36 597.41 62.61)" xlink:href="#New_Symbol_5"/><use width="1.85" height="1.85" transform="matrix(1.36 0 0 1.36 667.55 54.68)" xlink:href="#New_Symbol_5"/><use width="1.85" height="1.85" transform="matrix(1.36 0 0 1.36 699.8 48.87)" xlink:href="#New_Symbol_5"/><use width="1.85" height="1.85" transform="matrix(1.36 0 0 1.36 815.08 43.3)" xlink:href="#New_Symbol_5"/><use width="1.85" height="1.85" transform="matrix(1.36 0 0 1.36 686.28 104.68)" xlink:href="#New_Symbol_5"/><use width="1.85" height="1.85" transform="matrix(1.36 0 0 1.36 477.34 155.56)" xlink:href="#New_Symbol_5"/><use width="1.85" height="1.85" transform="matrix(1.36 0 0 1.36 494.19 203.66)" xlink:href="#New_Symbol_5"/><use width="1.85" height="1.85" transform="matrix(3.36 0 0 3.36 456.47 231.84)" xlink:href="#New_Symbol_5"/><use width="1.85" height="1.85" transform="matrix(1.36 0 0 1.36 357.41 267.39)" xlink:href="#New_Symbol_5"/><use width="1.85" height="1.85" transform="matrix(1.36 0 0 1.36 245.82 277.79)" xlink:href="#New_Symbol_5"/><use width="1.85" height="1.85" transform="matrix(2.32 0 0 2.32 195.97 332.93)" xlink:href="#New_Symbol_5"/><use width="1.85" height="1.85" transform="matrix(2.64 0 0 2.64 193.57 354.68)" xlink:href="#New_Symbol_5"/><use width="1.85" height="1.85" transform="matrix(1.36 0 0 1.36 160.36 390.75)" xlink:href="#New_Symbol_5"/><use width="1.85" height="1.85" transform="matrix(1.36 0 0 1.36 136.69 451.14)" xlink:href="#New_Symbol_5"/><use width="1.85" height="1.85" transform="matrix(1.36 0 0 1.36 150.32 430.04)" xlink:href="#New_Symbol_5"/><use width="1.85" height="1.85" transform="matrix(1.36 0 0 1.36 142.91 440.75)" xlink:href="#New_Symbol_5"/><use width="1.85" height="1.85" transform="matrix(1.36 0 0 1.36 174.15 445.53)" xlink:href="#New_Symbol_5"/><use width="1.85" height="1.85" transform="matrix(1.36 0 0 1.36 161.55 415.67)" xlink:href="#New_Symbol_5"/><use width="1.85" height="1.85" transform="matrix(1.36 0 0 1.36 153.19 410.53)" xlink:href="#New_Symbol_5"/><use width="1.85" height="1.85" transform="matrix(3.75 0 0 3.75 350.61 494.43)" xlink:href="#New_Symbol_5"/><use width="1.85" height="1.85" transform="matrix(1.36 0 0 1.36 344.85 465.66)" xlink:href="#New_Symbol_5"/><use width="1.85" height="1.85" transform="matrix(2.54 0 0 2.54 375.93 482.06)" xlink:href="#New_Symbol_5"/><use width="1.85" height="1.85" transform="matrix(1.36 0 0 1.36 688.02 326.06)" xlink:href="#New_Symbol_5"/><use width="1.85" height="1.85" transform="matrix(1.36 0 0 1.36 658.31 356.62)" xlink:href="#New_Symbol_5"/><use width="1.85" height="1.85" transform="matrix(1.36 0 0 1.36 647.05 278.67)" xlink:href="#New_Symbol_5"/><use width="1.85" height="1.85" transform="matrix(1.36 0 0 1.36 652.05 260.44)" xlink:href="#New_Symbol_5"/><use width="1.85" height="1.85" transform="matrix(1.36 0 0 1.36 626.38 256.25)" xlink:href="#New_Symbol_5"/><use width="1.85" height="1.85" transform="matrix(4.54 0 0 4.54 764.49 119.87)" xlink:href="#New_Symbol_5"/><use width="1.85" height="1.85" transform="matrix(1.56 0 0 1.56 763.07 90.08)" xlink:href="#New_Symbol_5"/><use width="1.85" height="1.85" transform="matrix(1.43 0 0 1.43 778.09 92.39)" xlink:href="#New_Symbol_5"/><use width="1.85" height="1.85" transform="matrix(1.63 0 0 1.63 811.7 80.77)" xlink:href="#New_Symbol_5"/><use width="1.85" height="1.85" transform="matrix(1.36 0 0 1.36 809.66 72.05)" xlink:href="#New_Symbol_5"/><use width="1.85" height="1.85" transform="matrix(1.36 0 0 1.36 799.01 66.94)" xlink:href="#New_Symbol_5"/><use width="1.85" height="1.85" transform="matrix(1.36 0 0 1.36 797.87 73.09)" xlink:href="#New_Symbol_5"/><use width="1.85" height="1.85" transform="matrix(1.36 0 0 1.36 818.56 148.48)" xlink:href="#New_Symbol_5"/><use width="1.85" height="1.85" transform="matrix(1.36 0 0 1.36 843.45 187.38)" xlink:href="#New_Symbol_5"/><use width="1.85" height="1.85" transform="matrix(1.36 0 0 1.36 916.34 183.87)" xlink:href="#New_Symbol_5"/><use width="1.85" height="1.85" transform="matrix(1.36 0 0 1.36 455.7 100.94)" xlink:href="#New_Symbol_5"/><use width="1.85" height="1.85" transform="matrix(3.93 0 0 3.93 353.74 50.64)" xlink:href="#New_Symbol_5"/><use width="1.85" height="1.85" transform="matrix(2.07 0 0 2.07 326.18 30.59)" xlink:href="#New_Symbol_5"/><use width="1.85" height="1.85" transform="matrix(1.36 0 0 1.36 286.03 43.49)" xlink:href="#New_Symbol_5"/><use width="1.85" height="1.85" transform="matrix(1.36 0 0 1.36 267.69 10.18)" xlink:href="#New_Symbol_5"/><use width="1.85" height="1.85" transform="matrix(1.36 0 0 1.36 277.82 111.69)" xlink:href="#New_Symbol_5"/><use width="1.85" height="1.85" transform="matrix(1.36 0 0 1.36 251.96 91.5)" xlink:href="#New_Symbol_5"/><use width="1.85" height="1.85" transform="matrix(1.36 0 0 1.36 195.49 58.22)" xlink:href="#New_Symbol_5"/><use width="1.85" height="1.85" transform="matrix(1.36 0 0 1.36 211.15 81.99)" xlink:href="#New_Symbol_5"/><use width="1.85" height="1.85" transform="matrix(1.36 0 0 1.36 237.61 137.99)" xlink:href="#New_Symbol_5"/><use width="1.85" height="1.85" transform="matrix(1.36 0 0 1.36 146.24 161.17)" xlink:href="#New_Symbol_5"/></g><g class="cls-6"><use width="1.85" height="1.85" transform="matrix(1.36 0 0 1.36 112.01 89.87)" xlink:href="#New_Symbol_5"/><use width="1.85" height="1.85" transform="matrix(1.36 0 0 1.36 61.68 1.54)" xlink:href="#New_Symbol_5"/><use width="1.85" height="1.85" transform="matrix(1.36 0 0 1.36 7.36 35.28)" xlink:href="#New_Symbol_5"/><use width="1.85" height="1.85" transform="matrix(1.36 0 0 1.36 12.86 54.11)" xlink:href="#New_Symbol_5"/><use width="1.85" height="1.85" transform="matrix(1.36 0 0 1.36 89.71 34.98)" xlink:href="#New_Symbol_5"/><use width="1.85" height="1.85" transform="matrix(1.36 0 0 1.36 136.18 3.52)" xlink:href="#New_Symbol_5"/><use width="1.85" height="1.85" transform="matrix(1.36 0 0 1.36 14.32 153)" xlink:href="#New_Symbol_5"/><use width="1.85" height="1.85" transform="matrix(1.36 0 0 1.36 5.9 186.14)" xlink:href="#New_Symbol_5"/><use width="1.85" height="1.85" transform="matrix(1.36 0 0 1.36 17.33 217.75)" xlink:href="#New_Symbol_5"/><use width="1.85" height="1.85" transform="matrix(1.36 0 0 1.36 58.24 260.03)" xlink:href="#New_Symbol_5"/><use width="1.85" height="1.85" transform="matrix(1.36 0 0 1.36 67.39 248.84)" xlink:href="#New_Symbol_5"/><use width="1.85" height="1.85" transform="matrix(1.36 0 0 1.36 108.75 248.76)" xlink:href="#New_Symbol_5"/><use width="1.85" height="1.85" transform="matrix(1.36 0 0 1.36 114.57 234.77)" xlink:href="#New_Symbol_5"/><use width="1.85" height="1.85" transform="matrix(1.36 0 0 1.36 90.55 202.55)" xlink:href="#New_Symbol_5"/><use width="1.85" height="1.85" transform="matrix(1.36 0 0 1.36 112.76 208.78)" xlink:href="#New_Symbol_5"/><use width="1.85" height="1.85" transform="matrix(1.36 0 0 1.36 143.96 220.34)" xlink:href="#New_Symbol_5"/><use width="1.85" height="1.85" transform="matrix(1.36 0 0 1.36 155.64 237.87)" xlink:href="#New_Symbol_5"/><use width="1.85" height="1.85" transform="matrix(1.36 0 0 1.36 115.22 261.53)" xlink:href="#New_Symbol_5"/><use width="1.85" height="1.85" transform="matrix(1.36 0 0 1.36 -.86 301.72)" xlink:href="#New_Symbol_5"/><use width="1.85" height="1.85" transform="matrix(1.36 0 0 1.36 34.3 344.12)" xlink:href="#New_Symbol_5"/><use width="1.85" height="1.85" transform="matrix(1.36 0 0 1.36 82.18 300.03)" xlink:href="#New_Symbol_5"/><use width="1.85" height="1.85" transform="matrix(1.36 0 0 1.36 84.48 311.95)" xlink:href="#New_Symbol_5"/><use width="1.85" height="1.85" transform="matrix(1.36 0 0 1.36 36.05 362.92)" xlink:href="#New_Symbol_5"/><use width="1.85" height="1.85" transform="matrix(1.36 0 0 1.36 11.7 447.27)" xlink:href="#New_Symbol_5"/><use width="1.85" height="1.85" transform="matrix(1.36 0 0 1.36 32.7 491.49)" xlink:href="#New_Symbol_5"/><use width="1.85" height="1.85" transform="matrix(1.36 0 0 1.36 104.47 498.37)" xlink:href="#New_Symbol_5"/><use width="1.85" height="1.85" transform="matrix(1.36 0 0 1.36 101.8 405.18)" xlink:href="#New_Symbol_5"/><use width="1.85" height="1.85" transform="matrix(1.36 0 0 1.36 132.45 453.42)" xlink:href="#New_Symbol_5"/><use width="1.85" height="1.85" transform="matrix(1.36 0 0 1.36 126.26 485.42)" xlink:href="#New_Symbol_5"/><use width="1.85" height="1.85" transform="matrix(1.36 0 0 1.36 74.23 453.7)" xlink:href="#New_Symbol_5"/><use width="1.85" height="1.85" transform="matrix(1.36 0 0 1.36 166.41 71.38)" xlink:href="#New_Symbol_5"/><use width="1.85" height="1.85" transform="matrix(1.36 0 0 1.36 172.89 93.53)" xlink:href="#New_Symbol_5"/><use width="1.85" height="1.85" transform="matrix(1.36 0 0 1.36 174.97 104.17)" xlink:href="#New_Symbol_5"/><use width="1.85" height="1.85" transform="matrix(1.36 0 0 1.36 68.53 85.18)" xlink:href="#New_Symbol_5"/><use width="1.85" height="1.85" transform="matrix(1.36 0 0 1.36 933.08 3.53)" xlink:href="#New_Symbol_5"/><use width="1.85" height="1.85" transform="matrix(1.36 0 0 1.36 983.53 60.95)" xlink:href="#New_Symbol_5"/><use width="1.85" height="1.85" transform="matrix(1.36 0 0 1.36 985.41 80.05)" xlink:href="#New_Symbol_5"/><use width="1.85" height="1.85" transform="matrix(1.36 0 0 1.36 899.56 37.31)" xlink:href="#New_Symbol_5"/><use width="1.85" height="1.85" transform="matrix(1.36 0 0 1.36 854.82 8.18)" xlink:href="#New_Symbol_5"/><use width="1.85" height="1.85" transform="matrix(1.36 0 0 1.36 876.12 -1.13)" xlink:href="#New_Symbol_5"/><use width="1.85" height="1.85" transform="matrix(1.36 0 0 1.36 985.18 91.04)" xlink:href="#New_Symbol_5"/><use width="1.85" height="1.85" transform="matrix(1.36 0 0 1.36 993.32 148.49)" xlink:href="#New_Symbol_5"/><use width="1.85" height="1.85" transform="matrix(1.36 0 0 1.36 602.2 -1.94)" xlink:href="#New_Symbol_5"/><use width="1.85" height="1.85" transform="matrix(1.36 0 0 1.36 704.85 15.24)" xlink:href="#New_Symbol_5"/><use width="1.85" height="1.85" transform="matrix(1.36 0 0 1.36 200.19 256.35)" xlink:href="#New_Symbol_5"/><use width="1.85" height="1.85" transform="matrix(1.36 0 0 1.36 913.2 68.38)" xlink:href="#New_Symbol_5"/><use width="1.85" height="1.85" transform="matrix(1.36 0 0 1.36 977.18 128.97)" xlink:href="#New_Symbol_5"/><use width="1.85" height="1.85" transform="matrix(1.36 0 0 1.36 982.83 197.07)" xlink:href="#New_Symbol_5"/></g><circle cx="669.54" cy="527.94" r="810.68" style="mix-blend-mode:color-dodge" opacity=".15" fill="url(#radial-gradient)"/><g style="mix-blend-mode:screen" opacity=".5" fill="none"><path stroke="url(#linear-gradient-2)" stroke-width=".5" stroke-miterlimit="10" d="M683.87 365.24l-134.08 7.32 10.54-85.88 123.54 78.56z"/><path stroke="url(#linear-gradient-3)" stroke-miterlimit="10" d="M788.53 269.82l-48.91 190.57L609.77 353.3l178.76-83.48z"/><path d="M871.17 73.35c-2.53 0-157.69 39.63-157.69 39.63l75 156.84 161.06-140z" stroke="url(#linear-gradient-4)" stroke-miterlimit="10"/><path stroke="url(#linear-gradient-5)" stroke-miterlimit="10" d="M590.39 190.56l123.09-77.58 75.05 156.84-198.14-79.26z"/><path stroke="url(#linear-gradient-6)" stroke-linecap="round" stroke-linejoin="round" d="M609.77 353.3l178.76-83.48-198.14-79.26 19.38 162.74z"/><path stroke="url(#linear-gradient-7)" stroke-width=".5" stroke-miterlimit="10" d="M427.09 477.25l122.7-104.69 17.39 77.71-140.09 26.98z"/><path stroke="url(#linear-gradient-8)" stroke-miterlimit="10" d="M480.85 320.41l-53.76 156.84 140.09-26.98-86.33-129.86z"/><path d="M647.71 591.78c-4.21 0-221.16 88.69-220.62 86.16s0-200.69 0-200.69z" stroke="url(#linear-gradient-9)" stroke-miterlimit="10"/><path stroke="url(#linear-gradient-10)" stroke-width=".5" stroke-miterlimit="10" d="M876.23 373.53l-87.7-103.71-48.91 190.57 136.61-86.86z"/><path stroke="url(#linear-gradient-11)" stroke-linecap="round" stroke-linejoin="round" d="M949.59 129.84L788.53 269.82l133.23 59.87 27.83-199.85z"/><path stroke="url(#linear-gradient-12)" stroke-miterlimit="10" d="M739.62 460.39l174.55 143.34 7.59-274.04-182.14 130.7z"/><path stroke="url(#linear-gradient-13)" stroke-linecap="round" stroke-linejoin="round" d="M567.18 450.27l172.44 10.12L609.77 353.3l-42.59 96.97z"/><path stroke="url(#linear-gradient-14)" stroke-miterlimit="10" d="M861.75 560.68l-214.04 31.1 91.91-131.39 122.13 100.29z"/><path stroke="url(#linear-gradient-15)" stroke-width=".5" stroke-miterlimit="10" d="M590.39 190.56l-30.06 96.12 138.82 17.71-108.76-113.83z"/><path stroke="url(#linear-gradient-16)" stroke-linecap="round" stroke-linejoin="round" d="M713.48 112.98l20.24 98.66-143.33-21.08 123.09-77.58z"/><path stroke="url(#linear-gradient-17)" stroke-miterlimit="10" d="M699.15 304.39l34.57-92.75-143.33-21.08 108.76 113.83z"/><path stroke="url(#linear-gradient-18)" stroke-linecap="round" stroke-linejoin="round" d="M871.17 73.35L733.72 211.64l54.81 58.18 82.64-196.47z"/><path stroke="url(#linear-gradient-19)" stroke-miterlimit="10" d="M567.18 450.27l115.95-85.17-122.8-78.42 6.85 163.59z"/><path stroke="url(#linear-gradient-20)" stroke-width=".5" stroke-miterlimit="10" d="M504.64 577.62l62.54-127.35-140.09 26.98 77.55 100.37z"/><path stroke="url(#linear-gradient-21)" stroke-miterlimit="10" d="M683.13 365.1l56.49 95.29-172.44-10.12 115.95-85.17z"/><path stroke="url(#linear-gradient-22)" stroke-miterlimit="10" d="M739.62 460.39L674.7 709.13l187.05-148.45-122.13-100.29z"/><path d="M1033.91 377.75s-41.32 206.59-43.85 206.59-75.89 19.39-75.89 19.39z" stroke="url(#linear-gradient-23)" stroke-miterlimit="10"/><path stroke="url(#linear-gradient-24)" stroke-width=".5" stroke-miterlimit="10" d="M683.13 365.1l238.63-35.41-222.61-25.3-16.02 60.71z"/><path stroke="url(#linear-gradient-25)" stroke-width=".5" stroke-miterlimit="10" d="M1033.91 377.75l-112.15-48.06-45.53 43.84 157.68 4.22z"/><path stroke="url(#linear-gradient-26)" stroke-linecap="round" stroke-linejoin="round" d="M949.59 129.84l84.32 247.91-112.15-48.06 27.83-199.85z"/><path opacity=".6" stroke="url(#linear-gradient-27)" stroke-miterlimit="10" d="M338.25 38.78l109.13-54.81 58.27 133.23-1.32 73.36h86.06"/><path opacity=".4" stroke="url(#linear-gradient-28)" stroke-miterlimit="10" d="M674.7-24.46l-44.96 145.03L779.68-.85 674.7-24.46z"/><path stroke="url(#linear-gradient-29)" opacity=".41" stroke-miterlimit="10" d="M511.95-16.03l77.42-34.57L537.4 73.35l-25.45-89.38z"/><path stroke="url(#linear-gradient-30)" opacity=".41" stroke-miterlimit="10" d="M158.49 155.26l44.18 21.13-73.99 23.51 29.81-44.64z"/><path stroke="url(#linear-gradient-31)" opacity=".41" stroke-miterlimit="10" d="M346.69 123.94l75.74-59.02 58.42 59.02H346.69z"/><path stroke="url(#linear-gradient-32)" opacity=".41" stroke-miterlimit="10" d="M199.18 99.97l-9.14-60.83 60.28-19.8-51.14 80.63z"/><path stroke="url(#linear-gradient-33)" stroke-miterlimit="10" d="M334.88 247.47l79.36-60.29 62.09 48.07-141.45 12.22z"/><path stroke="url(#linear-gradient-34)" stroke-miterlimit="10" d="M399.56 398.83l-15.05-77.15 53.79-1.27-38.74 78.42z"/><path stroke="url(#linear-gradient-35)" opacity=".41" stroke-miterlimit="10" d="M267.42 202.36l-7.59 32.89 31.2-16.45-23.61-16.44z"/><path stroke="url(#linear-gradient-36)" opacity=".41" stroke-miterlimit="10" d="M177.55 455.5l-33.28 5.63 27.17 22.49 6.11-28.12z"/><path stroke="url(#linear-gradient-37)" opacity=".41" stroke-miterlimit="10" d="M98.66 123.94l-33.28 5.63 27.17 22.49 6.11-28.12z"/><path stroke="url(#linear-gradient-38)" opacity=".41" stroke-miterlimit="10" d="M226.1 505.06l37.11-101.17 53.12 68.65-90.23 32.52z"/><path stroke="url(#linear-gradient-39)" opacity=".41" stroke-miterlimit="10" d="M185.64 406.84L44.3 381.4l81.63-81.6 59.71 107.04z"/><path opacity=".39" stroke="url(#linear-gradient-40)" stroke-miterlimit="10" d="M427.09 477.25l-65.23-83.48-9.27 94.86-61.56-179.18-53.96-37.52"/><path stroke="url(#linear-gradient-41)" stroke-linecap="round" stroke-linejoin="round" d="M739.62 460.39l294.29-82.64-172.16 182.93-122.13-100.29z"/><path stroke="url(#linear-gradient-42)" stroke-miterlimit="10" d="M990.06 584.34l-63.29-115.48-12.6 134.87 75.89-19.39z"/><path stroke="url(#linear-gradient-43)" stroke-width=".5" stroke-miterlimit="10" d="M926.77 468.86l-132.75 81.1 120.15 53.77 12.6-134.87z"/><path stroke="url(#linear-gradient-44)" stroke-miterlimit="10" d="M1033.91 377.75l-107.14 91.11 63.29 115.48 43.85-206.59z"/><path stroke="url(#linear-gradient-45)" stroke-linecap="round" stroke-linejoin="round" d="M629.74 120.57l83.74-7.59-8.77-33.62-74.97 41.21z"/><path stroke="url(#linear-gradient-46)" stroke-linecap="round" stroke-linejoin="round" d="M567.18 450.27l172.44 10.12-64.92 248.74-107.52-258.86z"/><path stroke="url(#linear-gradient-47)" stroke-width=".5" stroke-miterlimit="10" d="M480.61 320.62l69.18 51.94 10.54-85.88-79.72 33.94z"/><path stroke="url(#linear-gradient-48)" stroke-linecap="round" stroke-linejoin="round" d="M480.61 320.62l129.16 32.68-49.44-66.62-79.72 33.94z"/><path stroke="url(#linear-gradient-49)" stroke-width=".5" stroke-miterlimit="10" d="M683.87 365.24l192.36 8.29-68.31 103.72-124.05-112.01z"/><path stroke="url(#linear-gradient-50)" stroke-width=".5" stroke-miterlimit="10" d="M794.02 549.96l13.9-72.71-68.3-16.86 54.4 89.57z"/><path stroke="url(#linear-gradient-51)" stroke-width=".5" stroke-miterlimit="10" d="M926.77 468.86l-118.85 8.39-13.9 72.71 132.75-81.1z"/><path stroke="url(#linear-gradient-52)" stroke-width=".5" stroke-miterlimit="10" d="M876.23 373.53l50.54 95.33-118.85 8.39 68.31-103.72z"/><path stroke="url(#linear-gradient-53)" stroke-width=".5" stroke-miterlimit="10" d="M713.48 112.98l91.17 67.82 66.52-107.45-157.69 39.63z"/><path stroke="url(#linear-gradient-54)" stroke-width=".5" stroke-miterlimit="10" d="M949.59 129.84L804.65 180.8l117.11 148.89 27.83-199.85z"/><path stroke="url(#linear-gradient-55)" stroke-width=".5" stroke-miterlimit="10" d="M733.72 211.64l70.93-30.84-16.12 89.02-54.81-58.18z"/><path stroke="url(#linear-gradient-56)" stroke-width=".5" stroke-miterlimit="10" d="M567.18 450.27l-62.54 127.35 143.07 14.16-80.53-141.51z"/><path stroke="url(#linear-gradient-57)" stroke-width=".5" stroke-miterlimit="10" d="M794.02 549.96l-146.31 41.82 91.91-131.39 54.4 89.57z"/></g><circle class="cls-2" cx="713.01" cy="112.96" r="4.17"/><path class="cls-2" d="M595.64 191a5 5 0 1 1-5-5 5 5 0 0 1 5 5zM485.57 320.62a5 5 0 1 1-5-4.95 5 5 0 0 1 5 4.95z"/><circle class="cls-2" cx="567.78" cy="450.21" r="6.44"/><circle class="cls-2" cx="683.87" cy="365.24" r="3.28"/><path class="cls-2" d="M879.5 373.53a3.28 3.28 0 1 1-3.27-3.27 3.28 3.28 0 0 1 3.27 3.27z"/><circle class="cls-2" cx="549.79" cy="372.56" r="3.28"/><path class="cls-2" d="M563.6 286.68a3.28 3.28 0 1 1-3.27-3.27 3.27 3.27 0 0 1 3.27 3.27z"/><path class="cls-65" d="M365.88 395.56a3.28 3.28 0 1 1-3.28-3.28 3.28 3.28 0 0 1 3.28 3.28z"/><circle class="cls-65" cx="291.03" cy="310.87" r="3.28"/><path class="cls-65" d="M356.34 488.84a3.28 3.28 0 1 1-3.28-3.27 3.28 3.28 0 0 1 3.28 3.27z"/><path class="cls-2" d="M508.93 191a3.28 3.28 0 1 1-3.27-3.28 3.27 3.27 0 0 1 3.27 3.28zM387.78 323.24a3.28 3.28 0 1 1-3.27-3.27 3.27 3.27 0 0 1 3.27 3.27z"/><circle class="cls-65" cx="334.88" cy="247.47" r="3.28"/><path class="cls-65" d="M508.93 117.13a3.28 3.28 0 1 1-3.27-3.27 3.28 3.28 0 0 1 3.27 3.27zM783-1.14a3.27 3.27 0 0 1-3.27 3.28 3.28 3.28 0 0 1-3.28-3.28 3.28 3.28 0 0 1 3.28-3.28A3.27 3.27 0 0 1 783-1.14z"/><circle class="cls-2" cx="698.58" cy="304.32" r="3.28"/><circle class="cls-2" cx="804.65" cy="180.8" r="3.28"/><circle class="cls-2" cx="807.92" cy="477.25" r="3.28"/><path class="cls-2" d="M930.05 468.86a3.28 3.28 0 1 1-3.28-3.27 3.28 3.28 0 0 1 3.28 3.27z"/><circle class="cls-2" cx="787.97" cy="270.74" r="6.44"/><circle class="cls-2" cx="609.77" cy="353.3" r="6.44"/><circle class="cls-2" cx="921.76" cy="329.69" r="6.44"/><circle class="cls-2" cx="739.62" cy="460.39" r="6.44"/><circle class="cls-2" cx="732.76" cy="212.05" r="6.44"/><path class="cls-2" d="M432.69 477.52a5 5 0 1 1-5-4.95 5 5 0 0 1 5 4.95zm520.72-348.06a4.1 4.1 0 1 1-4.09-4.09 4.09 4.09 0 0 1 4.09 4.09zm-78.15-56.11a4.1 4.1 0 1 1-4.09-4.1 4.1 4.1 0 0 1 4.09 4.1z"/></g></g></svg>