<svg xmlns="http://www.w3.org/2000/svg" xmlns:xlink="http://www.w3.org/1999/xlink" viewBox="0 0 200 400"><defs><style>.cls-2{opacity:.5}</style><linearGradient id="linear-gradient" x1="-114.73" y1="528.4" x2="-86.36" y2="538.71" gradientTransform="matrix(0 1 1 0 -323.84 194.54)" gradientUnits="userSpaceOnUse"><stop offset="0" stop-color="#979797"/><stop offset="1" stop-color="#838384"/></linearGradient><linearGradient id="linear-gradient-2" x1="-81.71" y1="521.28" x2="-5.98" y2="555.69" gradientTransform="matrix(0 1 1 0 -323.84 194.54)" gradientUnits="userSpaceOnUse"><stop offset="0" stop-color="#979797"/><stop offset="1" stop-color="#9b9b9b"/></linearGradient><linearGradient id="linear-gradient-3" x1="-97.4" y1="575.47" x2="-88.8" y2="539.89" gradientTransform="matrix(0 1 1 0 -323.84 194.54)" gradientUnits="userSpaceOnUse"><stop offset="0" stop-color="#979797"/><stop offset="1" stop-color="#acabab"/></linearGradient><linearGradient id="linear-gradient-4" x1="-7.95" y1="532.39" x2="10.01" y2="486.95" gradientTransform="matrix(0 1 1 0 -323.84 194.54)" gradientUnits="userSpaceOnUse"><stop offset="0" stop-color="#9b9c9c"/><stop offset="1" stop-color="#b0b0b0"/></linearGradient><linearGradient id="linear-gradient-5" x1="41.48" y1="513.15" x2="1.96" y2="550.65" gradientTransform="matrix(0 1 1 0 -323.84 194.54)" gradientUnits="userSpaceOnUse"><stop offset="0" stop-color="#9f9f9f"/><stop offset="1" stop-color="#959494"/></linearGradient><linearGradient id="linear-gradient-6" x1="5.74" y1="549.49" x2="31.39" y2="534.91" gradientTransform="matrix(0 1 1 0 -323.84 194.54)" gradientUnits="userSpaceOnUse"><stop offset="0" stop-color="#aaa"/><stop offset="1" stop-color="#bdbdbd"/></linearGradient><linearGradient id="linear-gradient-7" x1="63.73" y1="513.13" x2="135.74" y2="551.6" gradientTransform="matrix(0 1 1 0 -323.84 194.54)" gradientUnits="userSpaceOnUse"><stop offset="0" stop-color="#d0d1d1"/><stop offset="1" stop-color="#cbcbcb"/></linearGradient><linearGradient id="linear-gradient-8" x1="134.6" y1="537.19" x2="150.28" y2="496.65" gradientTransform="matrix(0 1 1 0 -323.84 194.54)" gradientUnits="userSpaceOnUse"><stop offset="0" stop-color="#ddd"/><stop offset="1" stop-color="#e9e8e8"/></linearGradient><linearGradient id="linear-gradient-9" x1="166.66" y1="568.8" x2="160.63" y2="499.19" gradientTransform="matrix(0 1 1 0 -323.84 194.54)" gradientUnits="userSpaceOnUse"><stop offset="0" stop-color="#ececec"/><stop offset="1" stop-color="#eeedee"/></linearGradient><linearGradient id="linear-gradient-10" x1="-91.12" y1="453.45" x2="-70.01" y2="500.7" gradientTransform="matrix(0 1 1 0 -323.84 194.54)" gradientUnits="userSpaceOnUse"><stop offset="0" stop-color="#919191"/><stop offset="1" stop-color="#acabab"/></linearGradient><linearGradient id="linear-gradient-11" x1="-52.3" y1="489.73" x2="1.69" y2="537.74" gradientTransform="matrix(0 1 1 0 -323.84 194.54)" gradientUnits="userSpaceOnUse"><stop offset="0" stop-color="#9a9a9a"/><stop offset="1" stop-color="#828282"/></linearGradient><linearGradient id="linear-gradient-12" x1="-69.03" y1="443.58" x2="-47.94" y2="490.8" gradientTransform="matrix(0 1 1 0 -323.84 194.54)" gradientUnits="userSpaceOnUse"><stop offset="0" stop-color="#989798"/><stop offset="1" stop-color="#898989"/></linearGradient><linearGradient id="linear-gradient-13" x1="-21.44" y1="481.37" x2="-2.17" y2="507.75" gradientTransform="matrix(0 1 1 0 -323.84 194.54)" gradientUnits="userSpaceOnUse"><stop offset="0" stop-color="#9b9c9c"/><stop offset="1" stop-color="#8e8d8d"/></linearGradient><linearGradient id="linear-gradient-14" x1="118.75" y1="475.38" x2="112.87" y2="456.8" gradientTransform="matrix(0 1 1 0 -323.84 194.54)" gradientUnits="userSpaceOnUse"><stop offset="0" stop-color="#d8d9d8"/><stop offset="1" stop-color="#c7c6c5"/></linearGradient><linearGradient id="linear-gradient-15" x1="132.65" y1="506.18" x2="86.24" y2="531.38" gradientTransform="matrix(0 1 1 0 -323.84 194.54)" gradientUnits="userSpaceOnUse"><stop offset="0" stop-color="#d3d3d3"/><stop offset="1" stop-color="#eaeaea"/></linearGradient><linearGradient id="linear-gradient-16" x1="158.83" y1="498" x2="111.67" y2="456.21" gradientTransform="matrix(0 1 1 0 -323.84 194.54)" gradientUnits="userSpaceOnUse"><stop offset="0" stop-color="#e0e0df"/><stop offset="1" stop-color="#bcbcbb"/></linearGradient><linearGradient id="linear-gradient-17" x1="161.59" y1="506.15" x2="187.98" y2="489.99" gradientTransform="matrix(0 1 1 0 -323.84 194.54)" gradientUnits="userSpaceOnUse"><stop offset="0" stop-color="#ececec"/><stop offset="1" stop-color="#d9d9d8"/></linearGradient><linearGradient id="linear-gradient-18" x1="147.46" y1="490.13" x2="154.36" y2="501.41" gradientTransform="matrix(0 1 1 0 -323.84 194.54)" gradientUnits="userSpaceOnUse"><stop offset="0" stop-color="#ebebeb"/><stop offset="1" stop-color="#f3f3f3"/></linearGradient><linearGradient id="linear-gradient-19" x1="217.23" y1="434.57" x2="194.76" y2="493.41" gradientTransform="matrix(0 1 1 0 -323.84 194.54)" gradientUnits="userSpaceOnUse"><stop offset="0" stop-color="#f5f6f6"/><stop offset="1" stop-color="#e0e1e0"/></linearGradient><linearGradient id="linear-gradient-20" x1="160.56" y1="502.48" x2="235.57" y2="485.72" gradientTransform="matrix(0 1 1 0 -323.84 194.54)" gradientUnits="userSpaceOnUse"><stop offset="0" stop-color="#fdfeff"/><stop offset="1" stop-color="#dbdada"/></linearGradient><linearGradient id="linear-gradient-21" x1="-55.86" y1="443.76" x2="-92.71" y2="458.27" gradientTransform="matrix(0 1 1 0 -323.84 194.54)" gradientUnits="userSpaceOnUse"><stop offset="0" stop-color="#8b8b8b"/><stop offset="1" stop-color="#9e9e9e"/></linearGradient><linearGradient id="linear-gradient-22" x1="-68" y1="448.17" x2="-86.25" y2="455.99" gradientTransform="matrix(0 1 1 0 -323.84 194.54)" gradientUnits="userSpaceOnUse"><stop offset="0" stop-color="#8c8c8c"/><stop offset="1" stop-color="#888"/></linearGradient><linearGradient id="linear-gradient-23" x1="-30.07" y1="427.86" x2="-64.43" y2="479.74" gradientTransform="matrix(0 1 1 0 -323.84 194.54)" gradientUnits="userSpaceOnUse"><stop offset="0" stop-color="#908f8f"/><stop offset="1" stop-color="#8e8d8d"/></linearGradient><linearGradient id="linear-gradient-24" x1="52.36" y1="457.51" x2="5.53" y2="475.56" gradientTransform="matrix(0 1 1 0 -323.84 194.54)" gradientUnits="userSpaceOnUse"><stop offset="0" stop-color="#9b9b9b"/><stop offset="1" stop-color="#8c8c8c"/></linearGradient><linearGradient id="linear-gradient-25" x1="98.59" y1="440.1" x2="139.02" y2="476.7" gradientTransform="matrix(0 1 1 0 -323.84 194.54)" gradientUnits="userSpaceOnUse"><stop offset="0" stop-color="#c9c9c9"/><stop offset="1" stop-color="#c9c9c9"/></linearGradient><linearGradient id="linear-gradient-26" x1="120.03" y1="448.02" x2="33.81" y2="500.42" gradientTransform="matrix(0 1 1 0 -323.84 194.54)" gradientUnits="userSpaceOnUse"><stop offset="0" stop-color="#b4b4b4"/><stop offset="1" stop-color="#939393"/></linearGradient><linearGradient id="linear-gradient-27" x1="132.94" y1="456.22" x2="150.05" y2="427.61" gradientTransform="matrix(0 1 1 0 -323.84 194.54)" gradientUnits="userSpaceOnUse"><stop offset="0" stop-color="#c2c2c2"/><stop offset="1" stop-color="#a4a4a5"/></linearGradient><linearGradient id="linear-gradient-28" x1="210.51" y1="421.94" x2="141.17" y2="476.01" gradientTransform="matrix(0 1 1 0 -323.84 194.54)" gradientUnits="userSpaceOnUse"><stop offset="0" stop-color="#e1e2e1"/><stop offset="1" stop-color="#d3d3d3"/></linearGradient><linearGradient id="linear-gradient-29" x1="220.99" y1="435.38" x2="151.65" y2="489.45" gradientTransform="matrix(0 1 1 0 -323.84 194.54)" gradientUnits="userSpaceOnUse"><stop offset="0" stop-color="#e0e1e0"/><stop offset="1" stop-color="#bababa"/></linearGradient><linearGradient id="linear-gradient-30" x1="-40.01" y1="421.28" x2="-26.86" y2="386.43" gradientTransform="matrix(0 1 1 0 -323.84 194.54)" gradientUnits="userSpaceOnUse"><stop offset="0" stop-color="#878787"/><stop offset="1" stop-color="#818181"/></linearGradient><linearGradient id="linear-gradient-31" x1="-32.27" y1="423.22" x2="-67.51" y2="450.52" gradientTransform="matrix(0 1 1 0 -323.84 194.54)" gradientUnits="userSpaceOnUse"><stop offset="0" stop-color="#8b8b8b"/><stop offset="1" stop-color="#6f7070"/></linearGradient><linearGradient id="linear-gradient-32" x1="12.25" y1="435.85" x2="11.13" y2="389.04" gradientTransform="matrix(0 1 1 0 -323.84 194.54)" gradientUnits="userSpaceOnUse"><stop offset="0" stop-color="#919191"/><stop offset="1" stop-color="#a3a3a2"/></linearGradient><linearGradient id="linear-gradient-33" x1="-37.13" y1="437.03" x2="-38.26" y2="390.23" gradientTransform="matrix(0 1 1 0 -323.84 194.54)" gradientUnits="userSpaceOnUse"><stop offset="0" stop-color="#8b8a8b"/><stop offset="1" stop-color="#939393"/></linearGradient><linearGradient id="linear-gradient-34" x1="50.67" y1="417.19" x2="43.3" y2="445.24" gradientTransform="matrix(0 1 1 0 -323.84 194.54)" gradientUnits="userSpaceOnUse"><stop offset="0" stop-color="#9e9e9e"/><stop offset="1" stop-color="#959494"/></linearGradient><linearGradient id="linear-gradient-35" x1="41.84" y1="439.86" x2="-16.51" y2="443.55" gradientTransform="matrix(0 1 1 0 -323.84 194.54)" gradientUnits="userSpaceOnUse"><stop offset="0" stop-color="#989898"/><stop offset="1" stop-color="#858585"/></linearGradient><linearGradient id="linear-gradient-36" x1="55.26" y1="419.89" x2="96.98" y2="425.96" gradientTransform="matrix(0 1 1 0 -323.84 194.54)" gradientUnits="userSpaceOnUse"><stop offset="0" stop-color="#aeaeae"/><stop offset="1" stop-color="#c2c2c2"/></linearGradient><linearGradient id="linear-gradient-37" x1="150.01" y1="464.39" x2="98.23" y2="423.24" gradientTransform="matrix(0 1 1 0 -323.84 194.54)" gradientUnits="userSpaceOnUse"><stop offset="0" stop-color="#c8c7c6"/><stop offset="1" stop-color="#a4a4a5"/></linearGradient><linearGradient id="linear-gradient-38" x1="99.5" y1="413.62" x2="132.33" y2="410.38" gradientTransform="matrix(0 1 1 0 -323.84 194.54)" gradientUnits="userSpaceOnUse"><stop offset="0" stop-color="#c6c5c5"/><stop offset="1" stop-color="#acacac"/></linearGradient><linearGradient id="linear-gradient-39" x1="108.97" y1="375.91" x2="161.45" y2="457.75" gradientTransform="matrix(0 1 1 0 -323.84 194.54)" gradientUnits="userSpaceOnUse"><stop offset="0" stop-color="#d3d3d3"/><stop offset="1" stop-color="#c3c3c3"/></linearGradient><linearGradient id="linear-gradient-40" x1="164.26" y1="407.9" x2="218.17" y2="404.74" gradientTransform="matrix(0 1 1 0 -323.84 194.54)" gradientUnits="userSpaceOnUse"><stop offset="0" stop-color="#e2e2e2"/><stop offset="1" stop-color="#ccc"/></linearGradient><linearGradient id="linear-gradient-41" x1="206.14" y1="383.45" x2="241.3" y2="420.1" xlink:href="#linear-gradient-8"/><linearGradient id="linear-gradient-42" x1="-121.12" y1="356.47" x2="-19.8" y2="387.76" gradientTransform="matrix(0 1 1 0 -323.84 194.54)" gradientUnits="userSpaceOnUse"><stop offset="0" stop-color="#858585"/><stop offset="1" stop-color="#8e8d8d"/></linearGradient><linearGradient id="linear-gradient-43" x1="-6.24" y1="373.91" x2="-9.05" y2="372.45" gradientTransform="matrix(0 1 1 0 -323.84 194.54)" gradientUnits="userSpaceOnUse"><stop offset="0" stop-color="#838384"/><stop offset="1" stop-color="#676868"/></linearGradient><linearGradient id="linear-gradient-44" x1="-35.14" y1="423.13" x2="-21.97" y2="388.26" gradientTransform="matrix(0 1 1 0 -323.84 194.54)" gradientUnits="userSpaceOnUse"><stop offset="0" stop-color="#848484"/><stop offset="1" stop-color="#9f9f9f"/></linearGradient><linearGradient id="linear-gradient-45" x1="41.35" y1="432.91" x2="-15.42" y2="391.4" gradientTransform="matrix(0 1 1 0 -323.84 194.54)" gradientUnits="userSpaceOnUse"><stop offset="0" stop-color="#939393"/><stop offset="1" stop-color="#a7a6a6"/></linearGradient><linearGradient id="linear-gradient-46" x1="89.73" y1="399.55" x2="55.04" y2="336.67" gradientTransform="matrix(0 1 1 0 -323.84 194.54)" gradientUnits="userSpaceOnUse"><stop offset="0" stop-color="#9e9e9e"/><stop offset="1" stop-color="#a8a7a8"/></linearGradient><linearGradient id="linear-gradient-47" x1="125.56" y1="362.45" x2="82.49" y2="411.71" gradientTransform="matrix(0 1 1 0 -323.84 194.54)" gradientUnits="userSpaceOnUse"><stop offset="0" stop-color="#acacac"/><stop offset="1" stop-color="#c0bfbf"/></linearGradient><linearGradient id="linear-gradient-48" x1="96.77" y1="384.92" x2="140.36" y2="376.29" gradientTransform="matrix(0 1 1 0 -323.84 194.54)" gradientUnits="userSpaceOnUse"><stop offset="0" stop-color="#acabab"/><stop offset="1" stop-color="#989898"/></linearGradient><linearGradient id="linear-gradient-49" x1="174.71" y1="366.13" x2="184.56" y2="361.91" gradientTransform="matrix(0 1 1 0 -323.84 194.54)" gradientUnits="userSpaceOnUse"><stop offset="0" stop-color="#b7b7b8"/><stop offset="1" stop-color="#afafae"/></linearGradient><linearGradient id="linear-gradient-50" x1="192.85" y1="376.89" x2="221.81" y2="359.48" gradientTransform="matrix(0 1 1 0 -323.84 194.54)" gradientUnits="userSpaceOnUse"><stop offset="0" stop-color="#d3d3d3"/><stop offset="1" stop-color="#b5b6b6"/></linearGradient><linearGradient id="linear-gradient-51" x1="216.76" y1="373.21" x2="251.99" y2="409.92" gradientTransform="matrix(0 1 1 0 -323.84 194.54)" gradientUnits="userSpaceOnUse"><stop offset="0" stop-color="#dbdada"/><stop offset="1" stop-color="#dcdbdb"/></linearGradient><linearGradient id="linear-gradient-52" x1="-77.7" y1="329.48" x2="-66.32" y2="356.23" gradientTransform="matrix(0 1 1 0 -323.84 194.54)" gradientUnits="userSpaceOnUse"><stop offset="0" stop-color="#818181"/><stop offset="1" stop-color="#919191"/></linearGradient><linearGradient id="linear-gradient-53" x1="28.56" y1="337.03" x2="-27.63" y2="370.45" gradientTransform="matrix(0 1 1 0 -323.84 194.54)" gradientUnits="userSpaceOnUse"><stop offset="0" stop-color="#898989"/><stop offset="1" stop-color="#908f8f"/></linearGradient><linearGradient id="linear-gradient-54" x1="-25.49" y1="347.87" x2="-29.1" y2="390.03" gradientTransform="matrix(0 1 1 0 -323.84 194.54)" gradientUnits="userSpaceOnUse"><stop offset="0" stop-color="#838384"/><stop offset="1" stop-color="#8c8c8c"/></linearGradient><linearGradient id="linear-gradient-55" x1="37.79" y1="352.55" x2="-18.4" y2="385.97" gradientTransform="matrix(0 1 1 0 -323.84 194.54)" gradientUnits="userSpaceOnUse"><stop offset="0" stop-color="#8b8a8b"/><stop offset="1" stop-color="#9b9c9c"/></linearGradient><linearGradient id="linear-gradient-56" x1="108.37" y1="352.52" x2="33.24" y2="329.14" gradientTransform="matrix(0 1 1 0 -323.84 194.54)" gradientUnits="userSpaceOnUse"><stop offset="0" stop-color="#a7a6a6"/><stop offset="1" stop-color="#b3b3b3"/></linearGradient><linearGradient id="linear-gradient-57" x1="68.56" y1="345.58" x2="56.14" y2="372.04" gradientTransform="matrix(0 1 1 0 -323.84 194.54)" gradientUnits="userSpaceOnUse"><stop offset="0" stop-color="#9e9e9e"/><stop offset="1" stop-color="#888"/></linearGradient><linearGradient id="linear-gradient-58" x1="130.06" y1="328.3" x2="185.43" y2="340.73" gradientTransform="matrix(0 1 1 0 -323.84 194.54)" gradientUnits="userSpaceOnUse"><stop offset="0" stop-color="#cececd"/><stop offset="1" stop-color="#c8c7c6"/></linearGradient><linearGradient id="linear-gradient-59" x1="182.44" y1="369.27" x2="131.41" y2="307.72" gradientTransform="matrix(0 1 1 0 -323.84 194.54)" gradientUnits="userSpaceOnUse"><stop offset="0" stop-color="#cacaca"/><stop offset="1" stop-color="#d3d3d3"/></linearGradient><linearGradient id="linear-gradient-60" x1="223.33" y1="342.3" x2="198.76" y2="310.63" gradientTransform="matrix(0 1 1 0 -323.84 194.54)" gradientUnits="userSpaceOnUse"><stop offset="0" stop-color="#d3d3d3"/><stop offset="1" stop-color="#aeaeae"/></linearGradient><linearGradient id="linear-gradient-61" x1="204.32" y1="318.07" x2="199.89" y2="367.27" gradientTransform="matrix(0 1 1 0 -323.84 194.54)" gradientUnits="userSpaceOnUse"><stop offset="0" stop-color="#d3d3d3"/><stop offset="1" stop-color="#c9c9c9"/></linearGradient><linearGradient id="linear-gradient-62" x1="-51.3" y1="314.84" x2="35.84" y2="307.21" gradientTransform="matrix(0 1 1 0 -323.84 194.54)" gradientUnits="userSpaceOnUse"><stop offset="0" stop-color="#838384"/><stop offset="1" stop-color="#7f7f7f"/></linearGradient><linearGradient id="linear-gradient-63" x1="-54.98" y1="279.63" x2="-46.6" y2="316.1" gradientTransform="matrix(0 1 1 0 -323.84 194.54)" gradientUnits="userSpaceOnUse"><stop offset="0" stop-color="#818181"/><stop offset="1" stop-color="#676767"/></linearGradient><linearGradient id="linear-gradient-64" x1="44.13" y1="357.37" x2="35.99" y2="271.51" gradientTransform="matrix(0 1 1 0 -323.84 194.54)" gradientUnits="userSpaceOnUse"><stop offset="0" stop-color="#939393"/><stop offset="1" stop-color="#888"/></linearGradient><linearGradient id="linear-gradient-65" x1="138.55" y1="300.67" x2="91.69" y2="330.26" gradientTransform="matrix(0 1 1 0 -323.84 194.54)" gradientUnits="userSpaceOnUse"><stop offset="0" stop-color="#aaa"/><stop offset="1" stop-color="#a7a6a6"/></linearGradient><linearGradient id="linear-gradient-66" x1="137.41" y1="295.62" x2="156.42" y2="341.78" gradientTransform="matrix(0 1 1 0 -323.84 194.54)" gradientUnits="userSpaceOnUse"><stop offset="0" stop-color="#b7b7b8"/><stop offset="1" stop-color="#a7a6a6"/></linearGradient><linearGradient id="linear-gradient-67" x1="-223.88" y1="166.91" x2="-206.8" y2="138.33" gradientTransform="matrix(.58 .82 .82 -.58 172.03 273.77)" xlink:href="#linear-gradient-27"/><linearGradient id="linear-gradient-68" x1="-152.85" y1="128.77" x2="-222.07" y2="182.76" gradientTransform="matrix(.58 .82 .82 -.58 172.03 273.77)" xlink:href="#linear-gradient-28"/><linearGradient id="linear-gradient-69" x1="-264.04" y1="120.45" x2="-231.11" y2="117.19" gradientTransform="matrix(.58 .82 .82 -.58 172.03 273.77)" xlink:href="#linear-gradient-38"/><linearGradient id="linear-gradient-70" x1="-254.43" y1="82.59" x2="-201.88" y2="164.54" gradientTransform="matrix(.58 .82 .82 -.58 172.03 273.77)" xlink:href="#linear-gradient-39"/><linearGradient id="linear-gradient-71" x1="-199.15" y1="114.79" x2="-145.09" y2="111.63" gradientTransform="matrix(.58 .82 .82 -.58 172.03 273.77)" xlink:href="#linear-gradient-40"/><linearGradient id="linear-gradient-72" x1="-155.27" y1="88.56" x2="-120.04" y2="125.28" gradientTransform="matrix(.58 .82 .82 -.58 172.03 273.77)" xlink:href="#linear-gradient-8"/><linearGradient id="linear-gradient-73" x1="-256.16" y1="96.48" x2="-290.89" y2="33.53" gradientTransform="matrix(.58 .82 .82 -.58 172.03 273.77)" xlink:href="#linear-gradient-46"/><linearGradient id="linear-gradient-74" x1="-238.01" y1="69.26" x2="-280.98" y2="118.41" gradientTransform="matrix(.58 .82 .82 -.58 172.03 273.77)" xlink:href="#linear-gradient-47"/><linearGradient id="linear-gradient-75" x1="-266.75" y1="91.81" x2="-223.13" y2="83.18" gradientTransform="matrix(.58 .82 .82 -.58 172.03 273.77)" xlink:href="#linear-gradient-48"/><linearGradient id="linear-gradient-76" x1="-188.76" y1="73.04" x2="-178.92" y2="68.82" gradientTransform="matrix(.58 .82 .82 -.58 172.03 273.77)" xlink:href="#linear-gradient-49"/><linearGradient id="linear-gradient-77" x1="-170.56" y1="83.93" x2="-141.64" y2="66.54" gradientTransform="matrix(.58 .82 .82 -.58 172.03 273.77)" xlink:href="#linear-gradient-50"/><linearGradient id="linear-gradient-78" x1="-159.2" y1="81.89" x2="-123.63" y2="96.82" gradientTransform="matrix(.58 .82 .82 -.58 172.03 273.77)" gradientUnits="userSpaceOnUse"><stop offset="0" stop-color="#d8d9d8"/><stop offset="1" stop-color="#c8c8c8"/></linearGradient><linearGradient id="linear-gradient-79" x1="-146.63" y1="80.25" x2="-111.39" y2="116.99" gradientTransform="matrix(.58 .82 .82 -.58 172.03 273.77)" xlink:href="#linear-gradient-51"/><linearGradient id="linear-gradient-80" x1="-255.22" y1="59.35" x2="-330.53" y2="35.91" gradientTransform="matrix(.58 .82 .82 -.58 172.03 273.77)" xlink:href="#linear-gradient-56"/><linearGradient id="linear-gradient-81" x1="-285.84" y1="56.7" x2="-298.22" y2="83.08" gradientTransform="matrix(.58 .82 .82 -.58 172.03 273.77)" xlink:href="#linear-gradient-57"/><linearGradient id="linear-gradient-82" x1="-233.59" y1="35.25" x2="-178.04" y2="47.72" gradientTransform="matrix(.58 .82 .82 -.58 172.03 273.77)" xlink:href="#linear-gradient-58"/><linearGradient id="linear-gradient-83" x1="-181.05" y1="76.3" x2="-232.18" y2="14.63" gradientTransform="matrix(.58 .82 .82 -.58 172.03 273.77)" xlink:href="#linear-gradient-59"/><linearGradient id="linear-gradient-84" x1="-126.99" y1="39.2" x2="-151.6" y2="7.48" gradientTransform="matrix(.58 .82 .82 -.58 172.03 273.77)" xlink:href="#linear-gradient-60"/><linearGradient id="linear-gradient-85" x1="-159.17" y1="25.15" x2="-163.59" y2="74.25" gradientTransform="matrix(.58 .82 .82 -.58 172.03 273.77)" xlink:href="#linear-gradient-61"/><linearGradient id="linear-gradient-86" x1="-92.33" y1="46.18" x2="-54.3" y2="30.11" gradientTransform="matrix(.58 .82 .82 -.58 172.03 273.77)" gradientUnits="userSpaceOnUse"><stop offset="0" stop-color="#d3d3d3"/><stop offset="1" stop-color="#b3b3b3"/></linearGradient><linearGradient id="linear-gradient-87" x1="-92.14" y1="45.62" x2="-142.29" y2="68.55" gradientTransform="matrix(.58 .82 .82 -.58 172.03 273.77)" gradientUnits="userSpaceOnUse"><stop offset="0" stop-color="#d3d3d3"/><stop offset="1" stop-color="#d9d9d8"/></linearGradient><linearGradient id="linear-gradient-88" x1="-319.67" y1="64.09" x2="-327.8" y2="-21.69" gradientTransform="matrix(.58 .82 .82 -.58 172.03 273.77)" xlink:href="#linear-gradient-64"/><linearGradient id="linear-gradient-89" x1="-225.09" y1="7.55" x2="-271.9" y2="37.11" gradientTransform="matrix(.58 .82 .82 -.58 172.03 273.77)" xlink:href="#linear-gradient-65"/><linearGradient id="linear-gradient-90" x1="-226.18" y1="2.57" x2="-207.16" y2="48.74" gradientTransform="matrix(.58 .82 .82 -.58 172.03 273.77)" xlink:href="#linear-gradient-66"/><linearGradient id="linear-gradient-91" x1="-211.58" y1="8.78" x2="-212.75" y2="1.29" gradientTransform="matrix(.58 .82 .82 -.58 172.03 273.77)" gradientUnits="userSpaceOnUse"><stop offset="0" stop-color="#b7b7b8"/><stop offset="1" stop-color="#a1a0a0"/></linearGradient><linearGradient id="linear-gradient-92" x1="-194.11" y1="17.73" x2="-228.31" y2="17.22" gradientTransform="matrix(.58 .82 .82 -.58 172.03 273.77)" gradientUnits="userSpaceOnUse"><stop offset="0" stop-color="#c4c4c4"/><stop offset="1" stop-color="#bbb"/></linearGradient><linearGradient id="linear-gradient-93" x1="-90.48" y1="20.51" x2="-122.76" y2=".67" gradientTransform="matrix(.58 .82 .82 -.58 172.03 273.77)" gradientUnits="userSpaceOnUse"><stop offset="0" stop-color="#d3d3d3"/><stop offset="1" stop-color="#c8c7c6"/></linearGradient><linearGradient id="linear-gradient-94" x1="-171.89" y1="16.13" x2="-97.09" y2="24.81" gradientTransform="matrix(.58 .82 .82 -.58 172.03 273.77)" gradientUnits="userSpaceOnUse"><stop offset="0" stop-color="#d3d3d3"/><stop offset="1" stop-color="#bababa"/></linearGradient><linearGradient id="linear-gradient-95" x1="-318.13" y1="24.35" x2="-326.35" y2="-51.95" gradientTransform="matrix(.58 .82 .82 -.58 172.03 273.77)" gradientUnits="userSpaceOnUse"><stop offset="0" stop-color="#959494"/><stop offset="1" stop-color="#919090"/></linearGradient><linearGradient id="linear-gradient-96" x1="-326.19" y1="-56.9" x2="-272.64" y2="-19.57" gradientTransform="matrix(.58 .82 .82 -.58 172.03 273.77)" gradientUnits="userSpaceOnUse"><stop offset="0" stop-color="#a5a5a5"/><stop offset="1" stop-color="#7f8080"/></linearGradient><linearGradient id="linear-gradient-97" x1="-213.31" y1="31.12" x2="-272.15" y2="-20.85" gradientTransform="matrix(.58 .82 .82 -.58 172.03 273.77)" gradientUnits="userSpaceOnUse"><stop offset="0" stop-color="#b2b2b2"/><stop offset="1" stop-color="#b7b7b8"/></linearGradient><linearGradient id="linear-gradient-98" x1="-233.32" y1="3.71" x2="-231.34" y2="-38.4" gradientTransform="matrix(.58 .82 .82 -.58 172.03 273.77)" gradientUnits="userSpaceOnUse"><stop offset="0" stop-color="#b0b0b0"/><stop offset="1" stop-color="#a5a5a5"/></linearGradient><linearGradient id="linear-gradient-99" x1="-207.59" y1="-66.49" x2="-217.25" y2="8.95" gradientTransform="matrix(.58 .82 .82 -.58 172.03 273.77)" gradientUnits="userSpaceOnUse"><stop offset="0" stop-color="#c4c4c4"/><stop offset="1" stop-color="#b9b9b9"/></linearGradient><linearGradient id="linear-gradient-100" x1="-218.99" y1="-35.08" x2="-212.89" y2="1.15" gradientTransform="matrix(.58 .82 .82 -.58 172.03 273.77)" gradientUnits="userSpaceOnUse"><stop offset="0" stop-color="#bcbcbc"/><stop offset="1" stop-color="#afafae"/></linearGradient></defs><g style="isolation:isolate"><g id="Layer_1" data-name="Layer 1"><g class="cls-2"><path d="M250.13 90.94l-82.25 2.19 10.34 28.36 71.91-30.55z" style="mix-blend-mode:overlay" opacity=".6" fill="url(#linear-gradient)"/><path d="M214.53 99.51l-36.31 22 34.57 75.73 1.74-97.71z" style="mix-blend-mode:overlay" opacity=".38" fill="url(#linear-gradient-2)"/><path d="M214.53 99.51l-36.31 22 71.91-30.55-35.6 8.57z" style="mix-blend-mode:overlay" opacity=".77" fill="url(#linear-gradient-3)"/><path d="M204.79 175.78l8 21.44-45.5 17.9 37.5-39.34z" style="mix-blend-mode:overlay" opacity=".36" fill="url(#linear-gradient-4)"/><path style="mix-blend-mode:overlay" opacity=".67" fill="url(#linear-gradient-5)" d="M250.45 213.76l-45.66-37.98-37.5 39.34 83.16.57v-1.93z"/><path style="mix-blend-mode:overlay" opacity=".59" fill="url(#linear-gradient-6)" d="M250.45 219.8v-3.46l-82.6 22.46 70.34 2.49 12.26-21.49z"/><path d="M223.21 293.62l-45.61-29.1 38.6 71.93 7-42.83z" style="mix-blend-mode:overlay" opacity=".48" fill="url(#linear-gradient-7)"/><path d="M212.67 321l3.53 15.46-40.59 15.63L212.67 321z" style="mix-blend-mode:overlay" opacity=".4" fill="url(#linear-gradient-8)"/><path d="M245.23 358.09l-69.62-6 28.57 8.73 41-2.72z" style="mix-blend-mode:overlay" opacity=".32" fill="url(#linear-gradient-9)"/><path d="M178.22 121.49L136 109.94l-5.09-9.48 47.29 21z" style="mix-blend-mode:overlay" opacity=".75" fill="url(#linear-gradient-10)"/><path d="M212.79 197.22l-81.86-96.76 33.73 42.87 48.13 53.89z" style="mix-blend-mode:overlay" opacity=".87" fill="url(#linear-gradient-11)"/><path d="M212.79 197.22l-81.86-96.76 47.29 21 34.57 75.73z" style="mix-blend-mode:overlay" opacity=".98" fill="url(#linear-gradient-12)"/><path d="M167.29 215.13l-2.63-71.8-23.86 52.53 26.49 19.26z" style="mix-blend-mode:overlay" opacity=".31" fill="url(#linear-gradient-13)"/><path d="M216.2 336.45l-63.89-25.57-18.59-5.88 82.48 31.44z" style="mix-blend-mode:overlay" opacity=".27" fill="url(#linear-gradient-14)"/><path d="M216.2 336.45l-63.89-25.57 25.29-46.36 38.6 71.93z" style="mix-blend-mode:overlay" opacity=".27" fill="url(#linear-gradient-15)"/><path d="M175.61 352.08L133.72 305l30.61 40.19 11.28 6.88z" style="mix-blend-mode:overlay" opacity=".4" fill="url(#linear-gradient-16)"/><path d="M204.18 360.81l-39.85-15.61-16.18 26.31 56-10.7z" style="mix-blend-mode:overlay" opacity=".84" fill="url(#linear-gradient-17)"/><path d="M204.18 360.81l-39.85-15.61 11.28 6.88 28.57 8.73z" style="mix-blend-mode:overlay" opacity=".49" fill="url(#linear-gradient-18)"/><path style="mix-blend-mode:overlay" opacity=".42" fill="url(#linear-gradient-19)" d="M173.85 413.63l-25.7-42.13-9.54 42.13h35.24z"/><path style="mix-blend-mode:overlay" opacity=".92" fill="url(#linear-gradient-20)" d="M192.33 413.63l11.85-52.82-56.03 10.69 25.7 42.13h18.48z"/><path d="M130.93 100.46l-2.77 27.72-11.79 9.11 14.56-36.83z" style="mix-blend-mode:overlay" opacity=".28" fill="url(#linear-gradient-21)"/><path d="M130.93 100.46l-2.77 27.72 7.84-18.24-5.09-9.48z" style="mix-blend-mode:overlay" opacity=".55" fill="url(#linear-gradient-22)"/><path d="M164.66 143.33l-48.29-6-3.66 40.29 52-34.25z" style="mix-blend-mode:overlay" opacity=".81" fill="url(#linear-gradient-23)"/><path d="M157.84 217l-35.17 25.7 18.13-46.8 17 21.1z" style="mix-blend-mode:overlay" opacity=".6" fill="url(#linear-gradient-24)"/><path d="M152.31 310.88l-47-7.8L142 343.42l10.34-32.54z" style="mix-blend-mode:overlay" opacity=".37" fill="url(#linear-gradient-25)"/><path d="M152.31 310.88l-47-7.8L157.84 217l-5.53 93.92z" style="mix-blend-mode:overlay" opacity=".56" fill="url(#linear-gradient-26)"/><path d="M133.72 305l8.28 38.42-28.72 17.08 20.44-55.5z" style="mix-blend-mode:overlay" fill="url(#linear-gradient-27)" opacity=".21"/><path style="mix-blend-mode:overlay" fill="url(#linear-gradient-28)" opacity=".52" d="M110.73 413.63l53.6-68.43-51.05 15.3-3.12 53.13h.57z"/><path style="mix-blend-mode:overlay" fill="url(#linear-gradient-29)" d="M110.81 413.63l37.34-42.13 16.18-26.3-53.6 68.43h.08z"/><path d="M116.37 137.29l-15.58 26.07-34.89 13.11 50.47-39.18z" style="mix-blend-mode:overlay" opacity=".26" fill="url(#linear-gradient-30)"/><path d="M116.37 137.29l-15.58 26.07 27.37-35.18-11.79 9.11z" style="mix-blend-mode:overlay" opacity=".31" fill="url(#linear-gradient-31)"/><path d="M112.71 177.58l-46.81-1.11 43.1 59.47 3.71-58.36z" style="mix-blend-mode:overlay" opacity=".35" fill="url(#linear-gradient-32)"/><path d="M112.71 177.58l-46.81-1.11 50.47-39.18-3.66 40.29z" style="mix-blend-mode:overlay" opacity=".95" fill="url(#linear-gradient-33)"/><path d="M122.67 242.66L109 235.94 94.61 250l28.06-7.35z" style="mix-blend-mode:overlay" opacity=".86" fill="url(#linear-gradient-34)"/><path d="M122.67 242.66L109 235.94l3.71-58.36 10 65.08z" style="mix-blend-mode:overlay" opacity=".51" fill="url(#linear-gradient-35)"/><path d="M105.27 303.08L94.61 250l6.11 41.71 4.55 11.36z" style="mix-blend-mode:overlay" opacity=".38" fill="url(#linear-gradient-36)"/><path d="M142 343.42l-41.25-51.7 4.55 11.36 36.7 40.34z" style="mix-blend-mode:overlay" opacity=".83" fill="url(#linear-gradient-37)"/><path d="M113.28 360.5L60 291.11l-3.26 32.83 56.51 36.56z" style="mix-blend-mode:overlay" fill="url(#linear-gradient-38)" opacity=".24"/><path d="M113.28 360.5L60 291.11l82 52.31-28.72 17.08z" style="mix-blend-mode:overlay" fill="url(#linear-gradient-39)" opacity=".94"/><path style="mix-blend-mode:overlay" fill="url(#linear-gradient-40)" opacity=".73" d="M110.16 413.63l3.12-53.13-56.51-36.56 52.88 89.69h.51z"/><path style="mix-blend-mode:overlay" fill="url(#linear-gradient-41)" opacity=".4" d="M74.85 413.63l-14.44-13.79 10.97 13.79h3.47z"/><path d="M100.79 163.36l-81.86-3.52 50.44-97.77 31.42 101.29z" style="mix-blend-mode:overlay" opacity=".22" fill="url(#linear-gradient-42)"/><path d="M65.9 176.47l-40.69 6.38 42.16-3.59-1.47-2.79z" style="mix-blend-mode:overlay" opacity=".99" fill="url(#linear-gradient-43)"/><path d="M65.9 176.47l-40.69 6.38 75.58-19.49-34.89 13.11z" style="mix-blend-mode:overlay" opacity=".32" fill="url(#linear-gradient-44)"/><path d="M109 235.94l-41.63-56.68-1.47-2.79 43.1 59.47z" style="mix-blend-mode:overlay" fill="url(#linear-gradient-45)"/><path d="M94.61 250l-62.95-34.57L28.57 303l66-52.94z" style="mix-blend-mode:overlay" fill="url(#linear-gradient-46)" opacity=".25"/><path d="M100.72 291.72L28.57 303l22.79 31.74 49.36-43z" style="mix-blend-mode:overlay" fill="url(#linear-gradient-47)" opacity=".45"/><path d="M60 291.11l-8.67 43.58L46.44 371 60 291.11z" style="mix-blend-mode:overlay" fill="url(#linear-gradient-48)" opacity=".97"/><path d="M56.77 323.94L46.44 371l-4.23 9.84 14.56-56.93z" style="mix-blend-mode:overlay" fill="url(#linear-gradient-49)" opacity=".81"/><path d="M60.41 399.84l-18.2-19-17.47 28.95 35.67-10z" style="mix-blend-mode:overlay" fill="url(#linear-gradient-50)" opacity=".79"/><path style="mix-blend-mode:overlay" fill="url(#linear-gradient-51)" opacity=".35" d="M74.85 413.63l-14.44-13.79-35.67 9.95 11.06 3.84h39.05z"/><path d="M18.94 159.84l-33.75-89.09 6.94 77.74 26.8 11.35z" style="mix-blend-mode:overlay" opacity=".87" fill="url(#linear-gradient-52)"/><path d="M67.37 179.26L25.6 155l8.24 80.4 33.53-56.13z" style="mix-blend-mode:overlay" opacity=".51" fill="url(#linear-gradient-53)"/><path d="M67.37 179.26L25.6 155l-.39 27.86 42.16-3.59z" style="mix-blend-mode:overlay" opacity=".38" fill="url(#linear-gradient-54)"/><path d="M31.66 215.43l2.18 20 33.53-56.13-35.71 36.13z" style="mix-blend-mode:overlay" opacity=".23" fill="url(#linear-gradient-55)"/><path d="M28.57 303L5.09 227.85l22.85 72 .63 3.13z" style="mix-blend-mode:overlay" fill="url(#linear-gradient-56)" opacity=".78"/><path d="M28.57 303L5.09 227.85l26.57-12.42L28.57 303z" style="mix-blend-mode:overlay" fill="url(#linear-gradient-57)" opacity=".56"/><path d="M42.21 380.87L-19.46 330-7 385.28l49.2-4.41z" style="mix-blend-mode:overlay" fill="url(#linear-gradient-58)" opacity=".92"/><path d="M42.21 380.87L-19.46 330l65.9 41-4.23 9.84z" style="mix-blend-mode:overlay" fill="url(#linear-gradient-59)" opacity=".58"/><path style="mix-blend-mode:overlay" fill="url(#linear-gradient-60)" opacity=".86" d="M-3.68 413.63h26.66l1.76-3.83-31.73-24.52 3.31 28.35z"/><path d="M24.74 409.8L-7 385.28l49.2-4.41-17.46 28.92z" style="mix-blend-mode:overlay" fill="url(#linear-gradient-61)" opacity=".81"/><path style="mix-blend-mode:overlay" opacity=".3" fill="url(#linear-gradient-62)" d="M-45.52 153.48v67.75l71.12-66.24-69.95-14.85-1.17 13.34z"/><path d="M25.6 155l-69.95-14.85 36.48 8.35L25.6 155z" style="mix-blend-mode:overlay" opacity=".88" fill="url(#linear-gradient-63)"/><path style="mix-blend-mode:overlay" fill="url(#linear-gradient-64)" opacity=".22" d="M-45.52 228.83l39.48 9.4 39.88-2.84-79.36-7.49v.93z"/><path d="M27.94 299.82l-61.66 2.31 32 44.49 29.69-46.8z" style="mix-blend-mode:overlay" fill="url(#linear-gradient-65)" opacity=".96"/><path d="M19.26 347.74l-21-1.12-25.18-17.81 46.19 18.93z" style="mix-blend-mode:overlay" fill="url(#linear-gradient-66)" opacity=".61"/></g><g class="cls-2"><path style="mix-blend-mode:overlay" fill="url(#linear-gradient-67)" opacity=".21" d="M166.72-4.21l9.12 33.72L189.38-.91l-3.58-3.3h-19.08z"/><path style="mix-blend-mode:overlay" fill="url(#linear-gradient-68)" opacity=".52" d="M208.29-4.21h-5.97l-26.48 33.72 28.63 45.87 3.82-79.59z"/><path d="M175.84 29.51L92.14 3.39l16.36 28.69 67.34-2.57z" style="mix-blend-mode:overlay" fill="url(#linear-gradient-69)" opacity=".24"/><path d="M175.84 29.51L92.14 3.39l97.24-4.3-13.54 30.42z" style="mix-blend-mode:overlay" fill="url(#linear-gradient-70)" opacity=".94"/><path d="M204.48 75.38l-96-43.3 67.34-2.57 28.64 45.87z" style="mix-blend-mode:overlay" fill="url(#linear-gradient-71)" opacity=".73"/><path d="M211.2 108.35L155.43 92l50.33 7.58 5.44 8.77z" style="mix-blend-mode:overlay" fill="url(#linear-gradient-72)" opacity=".4"/><path style="mix-blend-mode:overlay" fill="url(#linear-gradient-73)" opacity=".25" d="M83.44-4.21H50.07L73.3 31.12 83.44-4.21z"/><path style="mix-blend-mode:overlay" fill="url(#linear-gradient-74)" opacity=".45" d="M122.03-4.21h-12.11L73.3 31.12l37 12.85 11.73-48.18z"/><path d="M92.14 3.39L110.3 44l17 32.52L92.14 3.39z" style="mix-blend-mode:overlay" fill="url(#linear-gradient-75)" opacity=".97"/><path d="M108.5 32.08l18.82 44.41L129.57 87 108.5 32.08z" style="mix-blend-mode:overlay" fill="url(#linear-gradient-76)" opacity=".81"/><path d="M155.43 92l-25.86-5 2.48 33.65L155.43 92z" style="mix-blend-mode:overlay" fill="url(#linear-gradient-77)" opacity=".79"/><path d="M205.76 99.58l-73.71 21L164.73 141l41-41.37z" style="mix-blend-mode:overlay" opacity=".72" fill="url(#linear-gradient-78)"/><path d="M205.76 99.58l-73.71 21L155.43 92l50.33 7.58z" style="mix-blend-mode:overlay" fill="url(#linear-gradient-79)" opacity=".35"/><path style="mix-blend-mode:overlay" fill="url(#linear-gradient-80)" opacity=".78" d="M27.19-4.21h-.15l46.25 35.33-2.32-2.19L27.19-4.21z"/><path style="mix-blend-mode:overlay" fill="url(#linear-gradient-81)" opacity=".56" d="M27.04-4.21l46.25 35.33L50.07-4.21H27.04z"/><path d="M129.57 87L49.7 80.77l42.23 38L129.57 87z" style="mix-blend-mode:overlay" fill="url(#linear-gradient-82)" opacity=".92"/><path d="M129.57 87L49.7 80.77l77.62-4.28L129.57 87z" style="mix-blend-mode:overlay" fill="url(#linear-gradient-83)" opacity=".58"/><path d="M132.05 120.61l-40.12-1.81 50.35 56-10.23-54.19z" style="mix-blend-mode:overlay" fill="url(#linear-gradient-84)" opacity=".86"/><path d="M132.05 120.61l-40.12-1.81L129.57 87l2.48 33.65z" style="mix-blend-mode:overlay" fill="url(#linear-gradient-85)" opacity=".81"/><path d="M164.73 141l-22.45 33.8 8.84 40.34L164.73 141z" style="mix-blend-mode:overlay" opacity=".84" fill="url(#linear-gradient-86)"/><path d="M164.73 141l-22.45 33.8-10.23-54.19L164.73 141z" style="mix-blend-mode:overlay" opacity=".69" fill="url(#linear-gradient-87)"/><path style="mix-blend-mode:overlay" fill="url(#linear-gradient-88)" opacity=".22" d="M-1.67-4.21l-34.7 19.78L7.54-1.89l2.85-2.32H-1.67z"/><path d="M71 28.93L22 66.21l51.89 18L71 28.93z" style="mix-blend-mode:overlay" fill="url(#linear-gradient-89)" opacity=".96"/><path d="M91.63 73.06L73.82 84.21l-30.89-.1 48.7-11z" style="mix-blend-mode:overlay" fill="url(#linear-gradient-90)" opacity=".61"/><path d="M49.7 80.77l-6.77 3.34 27 24.26-20.23-27.6z" style="mix-blend-mode:overlay" opacity=".28" fill="url(#linear-gradient-91)"/><path d="M91.93 118.8l-22-10.43-20.23-27.6 42.23 38z" style="mix-blend-mode:overlay" opacity=".97" fill="url(#linear-gradient-92)"/><path d="M142.28 174.8l-34.81-14.86-13.86 25.29 48.67-10.43z" style="mix-blend-mode:overlay" opacity=".25" fill="url(#linear-gradient-93)"/><path d="M142.28 174.8l-34.81-14.86-15.54-41.14 50.35 56z" style="mix-blend-mode:overlay" opacity=".78" fill="url(#linear-gradient-94)"/><path style="mix-blend-mode:overlay" opacity=".84" fill="url(#linear-gradient-95)" d="M-45.52 32.19L7.54-1.89l-53.06 29.36v4.72z"/><path style="mix-blend-mode:overlay" opacity=".84" fill="url(#linear-gradient-96)" d="M-45.52 50.7l42.94 15.48 24.51.03-67.45-17.4v1.89z"/><path d="M73.82 84.21l-76.4-18h24.51l51.89 18z" style="mix-blend-mode:overlay" opacity=".35" fill="url(#linear-gradient-97)"/><path d="M42.93 84.11L9.62 109.94l.2-10 33.11-15.83z" style="mix-blend-mode:overlay" opacity=".61" fill="url(#linear-gradient-98)"/><path d="M69.89 108.37L9.82 99.94l3.89 59.7 56.18-51.27z" style="mix-blend-mode:overlay" opacity=".42" fill="url(#linear-gradient-99)"/><path d="M69.89 108.37L9.82 99.94l33.11-15.83 27 24.26z" style="mix-blend-mode:overlay" opacity=".68" fill="url(#linear-gradient-100)"/></g></g></g></svg>