<svg xmlns="http://www.w3.org/2000/svg" xmlns:xlink="http://www.w3.org/1999/xlink" viewBox="0 0 1000 500"><defs><style>.cls-1,.cls-10,.cls-11,.cls-12,.cls-13,.cls-14,.cls-15,.cls-16,.cls-17,.cls-18,.cls-19,.cls-20,.cls-21,.cls-22,.cls-23,.cls-24,.cls-25,.cls-26,.cls-27,.cls-28,.cls-29,.cls-30,.cls-31,.cls-32,.cls-33,.cls-34,.cls-35,.cls-36,.cls-37,.cls-38,.cls-39,.cls-40,.cls-41,.cls-42,.cls-43,.cls-44,.cls-45,.cls-46,.cls-47,.cls-48,.cls-49,.cls-50,.cls-51,.cls-52,.cls-53,.cls-54,.cls-55,.cls-56,.cls-57,.cls-58,.cls-59,.cls-60,.cls-61,.cls-62,.cls-63,.cls-64,.cls-9{fill:none;}.cls-2{fill:#fbeef5;}.cls-3{isolation:isolate;}.cls-4{clip-path:url(#clip-path);}.cls-5{fill:url(#linear-gradient);}.cls-6{opacity:0.55;}.cls-6,.cls-7{mix-blend-mode:color-dodge;}.cls-7{opacity:0.15;fill:url(#radial-gradient);}.cls-8{opacity:0.5;mix-blend-mode:screen;}.cls-10,.cls-11,.cls-12,.cls-14,.cls-15,.cls-16,.cls-17,.cls-19,.cls-21,.cls-22,.cls-24,.cls-26,.cls-27,.cls-28,.cls-29,.cls-30,.cls-31,.cls-32,.cls-34,.cls-35,.cls-36,.cls-37,.cls-38,.cls-39,.cls-40,.cls-41,.cls-42,.cls-43,.cls-44,.cls-45,.cls-46,.cls-47,.cls-49,.cls-50,.cls-51,.cls-54,.cls-56,.cls-57,.cls-58,.cls-59,.cls-60,.cls-61,.cls-62,.cls-63,.cls-64,.cls-9{stroke-miterlimit:10;}.cls-14,.cls-17,.cls-22,.cls-27,.cls-31,.cls-32,.cls-50,.cls-54,.cls-56,.cls-57,.cls-58,.cls-59,.cls-60,.cls-61,.cls-62,.cls-63,.cls-64,.cls-9{stroke-width:0.5px;}.cls-9{stroke:url(#linear-gradient-2);}.cls-10{stroke:url(#linear-gradient-3);}.cls-11{stroke:url(#linear-gradient-4);}.cls-12{stroke:url(#linear-gradient-5);}.cls-13,.cls-18,.cls-20,.cls-23,.cls-25,.cls-33,.cls-48,.cls-52,.cls-53,.cls-55{stroke-linecap:round;stroke-linejoin:round;}.cls-13{stroke:url(#linear-gradient-6);}.cls-14{stroke:url(#linear-gradient-7);}.cls-15{stroke:url(#linear-gradient-8);}.cls-16{stroke:url(#linear-gradient-9);}.cls-17{stroke:url(#linear-gradient-10);}.cls-18{stroke:url(#linear-gradient-11);}.cls-19{stroke:url(#linear-gradient-12);}.cls-20{stroke:url(#linear-gradient-13);}.cls-21{stroke:url(#linear-gradient-14);}.cls-22{stroke:url(#linear-gradient-15);}.cls-23{stroke:url(#linear-gradient-16);}.cls-24{stroke:url(#linear-gradient-17);}.cls-25{stroke:url(#linear-gradient-18);}.cls-26{stroke:url(#linear-gradient-19);}.cls-27{stroke:url(#linear-gradient-20);}.cls-28{stroke:url(#linear-gradient-21);}.cls-29{stroke:url(#linear-gradient-22);}.cls-30{stroke:url(#linear-gradient-23);}.cls-31{stroke:url(#linear-gradient-24);}.cls-32{stroke:url(#linear-gradient-25);}.cls-33{stroke:url(#linear-gradient-26);}.cls-34{opacity:0.6;stroke:url(#linear-gradient-27);}.cls-35{opacity:0.4;stroke:url(#linear-gradient-28);}.cls-36,.cls-37,.cls-38,.cls-39,.cls-42,.cls-43,.cls-44,.cls-45,.cls-46{opacity:0.41;}.cls-36{stroke:url(#linear-gradient-29);}.cls-37{stroke:url(#linear-gradient-30);}.cls-38{stroke:url(#linear-gradient-31);}.cls-39{stroke:url(#linear-gradient-32);}.cls-40{stroke:url(#linear-gradient-33);}.cls-41{stroke:url(#linear-gradient-34);}.cls-42{stroke:url(#linear-gradient-35);}.cls-43{stroke:url(#linear-gradient-36);}.cls-44{stroke:url(#linear-gradient-37);}.cls-45{stroke:url(#linear-gradient-38);}.cls-46{stroke:url(#linear-gradient-39);}.cls-47{opacity:0.39;stroke:url(#linear-gradient-40);}.cls-48{stroke:url(#linear-gradient-41);}.cls-49{stroke:url(#linear-gradient-42);}.cls-50{stroke:url(#linear-gradient-43);}.cls-51{stroke:url(#linear-gradient-44);}.cls-52{stroke:url(#linear-gradient-45);}.cls-53{stroke:url(#linear-gradient-46);}.cls-54{stroke:url(#linear-gradient-47);}.cls-55{stroke:url(#linear-gradient-48);}.cls-56{stroke:url(#linear-gradient-49);}.cls-57{stroke:url(#linear-gradient-50);}.cls-58{stroke:url(#linear-gradient-51);}.cls-59{stroke:url(#linear-gradient-52);}.cls-60{stroke:url(#linear-gradient-53);}.cls-61{stroke:url(#linear-gradient-54);}.cls-62{stroke:url(#linear-gradient-55);}.cls-63{stroke:url(#linear-gradient-56);}.cls-64{stroke:url(#linear-gradient-57);}.cls-65{fill:#e5c5de;}</style><clipPath id="clip-path"><rect class="cls-1" x="-9.61" y="-89.74" width="1019.21" height="679.48"/></clipPath><linearGradient id="linear-gradient" x1="1359.57" y1="884.23" x2="-204.43" y2="-269.77" gradientUnits="userSpaceOnUse"><stop offset="0" stop-color="#12aa4b"/><stop offset="1" stop-color="#162b17"/></linearGradient><radialGradient id="radial-gradient" cx="860.71" cy="612.6" r="1122.51" gradientUnits="userSpaceOnUse"><stop offset="0.08" stop-color="#fbaa19"/><stop offset="0.1" stop-color="#faa51a" stop-opacity="0.94"/><stop offset="0.36" stop-color="#f47320" stop-opacity="0.31"/><stop offset="0.47" stop-color="#f15e22" stop-opacity="0.05"/><stop offset="0.69" stop-color="#df838e" stop-opacity="0.02"/><stop offset="1" stop-color="#d695c2" stop-opacity="0"/></radialGradient><linearGradient id="linear-gradient-2" x1="547.17" y1="299.22" x2="649.03" y2="401.08" gradientUnits="userSpaceOnUse"><stop offset="0" stop-color="#b94590"/><stop offset="0.99" stop-color="#6269b0"/></linearGradient><linearGradient id="linear-gradient-3" x1="675.01" y1="287" x2="794.6" y2="406.59" xlink:href="#linear-gradient-2"/><linearGradient id="linear-gradient-4" x1="747.29" y1="78.13" x2="874.68" y2="205.52" xlink:href="#linear-gradient-2"/><linearGradient id="linear-gradient-5" x1="640" y1="139.96" x2="780.17" y2="280.13" xlink:href="#linear-gradient-2"/><linearGradient id="linear-gradient-6" x1="583.92" y1="196.33" x2="723.32" y2="335.73" xlink:href="#linear-gradient-2"/><linearGradient id="linear-gradient-7" x1="483.54" y1="420.35" x2="540.56" y2="477.38" xlink:href="#linear-gradient-2"/><linearGradient id="linear-gradient-8" x1="427.46" y1="372.54" x2="536.78" y2="481.85" xlink:href="#linear-gradient-2"/><linearGradient id="linear-gradient-9" x1="402.99" y1="500.03" x2="572.5" y2="669.54" xlink:href="#linear-gradient-2"/><linearGradient id="linear-gradient-10" x1="728.2" y1="329.5" x2="824.45" y2="425.74" xlink:href="#linear-gradient-2"/><linearGradient id="linear-gradient-11" x1="863.43" y1="194.21" x2="960.69" y2="291.46" xlink:href="#linear-gradient-2"/><linearGradient id="linear-gradient-12" x1="817.59" y1="381.57" x2="977.71" y2="541.69" xlink:href="#linear-gradient-2"/><linearGradient id="linear-gradient-13" x1="580.22" y1="382.14" x2="699.4" y2="501.32" xlink:href="#linear-gradient-2"/><linearGradient id="linear-gradient-14" x1="688.62" y1="510.56" x2="801.01" y2="622.94" xlink:href="#linear-gradient-2"/><linearGradient id="linear-gradient-15" x1="558.51" y1="221.85" x2="670.6" y2="333.94" xlink:href="#linear-gradient-2"/><linearGradient id="linear-gradient-16" x1="640.21" y1="140.04" x2="723.12" y2="222.95" xlink:href="#linear-gradient-2"/><linearGradient id="linear-gradient-17" x1="618.74" y1="160.14" x2="731.63" y2="273.03" xlink:href="#linear-gradient-2"/><linearGradient id="linear-gradient-18" x1="801.04" y1="142.77" x2="858.66" y2="200.4" xlink:href="#linear-gradient-2"/><linearGradient id="linear-gradient-19" x1="531.37" y1="314.16" x2="633.15" y2="415.94" xlink:href="#linear-gradient-2"/><linearGradient id="linear-gradient-20" x1="462.94" y1="440.79" x2="552.46" y2="530.32" xlink:href="#linear-gradient-2"/><linearGradient id="linear-gradient-21" x1="616.72" y1="399.73" x2="709.23" y2="492.24" xlink:href="#linear-gradient-2"/><linearGradient id="linear-gradient-22" x1="665.73" y1="533.11" x2="777.92" y2="645.3" xlink:href="#linear-gradient-2"/><linearGradient id="linear-gradient-23" x1="947.1" y1="462.46" x2="1029.88" y2="545.25" xlink:href="#linear-gradient-2"/><linearGradient id="linear-gradient-24" x1="729.39" y1="273.69" x2="854.52" y2="398.82" xlink:href="#linear-gradient-2"/><linearGradient id="linear-gradient-25" x1="914.45" y1="334.94" x2="996.38" y2="416.86" xlink:href="#linear-gradient-2"/><linearGradient id="linear-gradient-26" x1="892.31" y1="186.41" x2="1059.14" y2="353.23" xlink:href="#linear-gradient-2"/><linearGradient id="linear-gradient-27" x1="379.08" y1="-2.72" x2="581.62" y2="199.83" xlink:href="#linear-gradient-2"/><linearGradient id="linear-gradient-28" x1="646.82" y1="2.48" x2="712.01" y2="67.67" xlink:href="#linear-gradient-2"/><linearGradient id="linear-gradient-29" x1="523.61" y1="-28.57" x2="582.17" y2="30" xlink:href="#linear-gradient-2"/><linearGradient id="linear-gradient-30" x1="441.22" y1="834.58" x2="475.53" y2="868.89" gradientTransform="translate(518.52 -721.28) rotate(49.63)" xlink:href="#linear-gradient-2"/><linearGradient id="linear-gradient-31" x1="379.59" y1="90.08" x2="448" y2="158.49" xlink:href="#linear-gradient-2"/><linearGradient id="linear-gradient-32" x1="734.71" y1="-661.99" x2="788.58" y2="-608.12" gradientTransform="translate(453.31 1024.81) rotate(-63.48)" xlink:href="#linear-gradient-2"/><linearGradient id="linear-gradient-33" x1="372.44" y1="208.89" x2="438.42" y2="274.87" xlink:href="#linear-gradient-2"/><linearGradient id="linear-gradient-34" x1="382.1" y1="323" x2="429.41" y2="370.32" xlink:href="#linear-gradient-2"/><linearGradient id="linear-gradient-35" x1="258.32" y1="210.31" x2="279.44" y2="231.42" xlink:href="#linear-gradient-2"/><linearGradient id="linear-gradient-36" x1="742.16" y1="1234.85" x2="763.27" y2="1255.96" gradientTransform="matrix(0.38, 0.92, -0.92, 0.38, 1021.52, -709.56)" xlink:href="#linear-gradient-2"/><linearGradient id="linear-gradient-37" x1="405.74" y1="1180.26" x2="426.85" y2="1201.38" gradientTransform="matrix(0.38, 0.92, -0.92, 0.38, 1021.52, -709.56)" xlink:href="#linear-gradient-2"/><linearGradient id="linear-gradient-38" x1="227.85" y1="438.07" x2="289.85" y2="500.07" xlink:href="#linear-gradient-2"/><linearGradient id="linear-gradient-39" x1="1180.57" y1="-659.01" x2="1260.93" y2="-578.65" gradientTransform="translate(1023.92 1405.35) rotate(-103.85)" xlink:href="#linear-gradient-2"/><linearGradient id="linear-gradient-40" x1="215.49" y1="293.38" x2="413.27" y2="491.16" xlink:href="#linear-gradient-2"/><linearGradient id="linear-gradient-41" x1="833.5" y1="365.8" x2="945.41" y2="477.72" xlink:href="#linear-gradient-2"/><linearGradient id="linear-gradient-42" x1="888.92" y1="504.7" x2="979.85" y2="595.62" xlink:href="#linear-gradient-2"/><linearGradient id="linear-gradient-43" x1="847.28" y1="496.19" x2="934.79" y2="583.7" xlink:href="#linear-gradient-2"/><linearGradient id="linear-gradient-44" x1="963.14" y1="431.74" x2="1053.71" y2="522.32" xlink:href="#linear-gradient-2"/><linearGradient id="linear-gradient-45" x1="658.43" y1="91.17" x2="697.21" y2="129.96" xlink:href="#linear-gradient-2"/><linearGradient id="linear-gradient-46" x1="569.57" y1="447.17" x2="753.47" y2="631.07" xlink:href="#linear-gradient-2"/><linearGradient id="linear-gradient-47" x1="508.81" y1="291.86" x2="569.98" y2="353.03" xlink:href="#linear-gradient-2"/><linearGradient id="linear-gradient-48" x1="508.67" y1="291.85" x2="590.3" y2="373.48" xlink:href="#linear-gradient-2"/><linearGradient id="linear-gradient-49" x1="729.48" y1="318.67" x2="848.2" y2="437.4" xlink:href="#linear-gradient-2"/><linearGradient id="linear-gradient-50" x1="743.21" y1="455.88" x2="816.05" y2="528.73" xlink:href="#linear-gradient-2"/><linearGradient id="linear-gradient-51" x1="817.97" y1="466.75" x2="873.77" y2="522.55" xlink:href="#linear-gradient-2"/><linearGradient id="linear-gradient-52" x1="832.92" y1="416.37" x2="906.4" y2="489.85" xlink:href="#linear-gradient-2"/><linearGradient id="linear-gradient-53" x1="762.59" y1="63.19" x2="842.64" y2="143.24" xlink:href="#linear-gradient-2"/><linearGradient id="linear-gradient-54" x1="845.47" y1="139.45" x2="979.12" y2="273.1" xlink:href="#linear-gradient-2"/><linearGradient id="linear-gradient-55" x1="758.16" y1="186.69" x2="815.25" y2="243.79" xlink:href="#linear-gradient-2"/><linearGradient id="linear-gradient-56" x1="519.41" y1="497.48" x2="631.09" y2="609.16" xlink:href="#linear-gradient-2"/><linearGradient id="linear-gradient-57" x1="683.43" y1="516.13" x2="755.9" y2="588.6" xlink:href="#linear-gradient-2"/><symbol id="New_Symbol_5" data-name="New Symbol 5" viewBox="0 0 1.85 1.85"><circle class="cls-2" cx="0.93" cy="0.93" r="0.93"/></symbol></defs><title>hero</title><g class="cls-3"><g id="main"><g class="cls-4"><rect class="cls-5" x="-9.61" y="-89.74" width="1019.21" height="679.48"/><g class="cls-6"><use width="1.85" height="1.85" transform="translate(542.98 306.63) scale(1.36)" xlink:href="#New_Symbol_5"/><use width="1.85" height="1.85" transform="translate(493.7 308.68) scale(1.36)" xlink:href="#New_Symbol_5"/><use width="1.85" height="1.85" transform="translate(428.92 330.59) scale(1.95)" xlink:href="#New_Symbol_5"/><use width="1.85" height="1.85" transform="translate(428.71 346.56) scale(2.14)" xlink:href="#New_Symbol_5"/><use width="1.85" height="1.85" transform="translate(469.93 361.68) scale(1.36)" xlink:href="#New_Symbol_5"/><use width="1.85" height="1.85" transform="translate(560.52 390.49) scale(1.36)" xlink:href="#New_Symbol_5"/><use width="1.85" height="1.85" transform="translate(618.83 430.2) scale(1.36)" xlink:href="#New_Symbol_5"/><use width="1.85" height="1.85" transform="translate(641.97 487.79) scale(1.36)" xlink:href="#New_Symbol_5"/><use width="1.85" height="1.85" transform="translate(523.44 423.04) scale(2.03)" xlink:href="#New_Symbol_5"/><use width="1.85" height="1.85" transform="translate(586.66 445.72) scale(1.36)" xlink:href="#New_Symbol_5"/><use width="1.85" height="1.85" transform="translate(704.28 443.44) scale(3.11 3.11)" xlink:href="#New_Symbol_5"/><use width="1.85" height="1.85" transform="translate(822.14 431.95) scale(1.36)" xlink:href="#New_Symbol_5"/><use width="1.85" height="1.85" transform="translate(911.98 334.17) scale(1.36)" xlink:href="#New_Symbol_5"/><use width="1.85" height="1.85" transform="translate(871.91 310.45) scale(1.36)" xlink:href="#New_Symbol_5"/><use width="1.85" height="1.85" transform="translate(872.32 266.67) scale(1.36)" xlink:href="#New_Symbol_5"/><use width="1.85" height="1.85" transform="translate(809.92 275.88) scale(2.77)" xlink:href="#New_Symbol_5"/><use width="1.85" height="1.85" transform="translate(808.74 286.47) scale(4.03)" xlink:href="#New_Symbol_5"/><use width="1.85" height="1.85" transform="translate(766.98 286.03) scale(1.36)" xlink:href="#New_Symbol_5"/><use width="1.85" height="1.85" transform="translate(734.09 228.6) scale(1.36)" xlink:href="#New_Symbol_5"/><use width="1.85" height="1.85" transform="translate(681.51 178.23) scale(1.36)" xlink:href="#New_Symbol_5"/><use width="1.85" height="1.85" transform="translate(623.84 158.37) scale(1.36)" xlink:href="#New_Symbol_5"/><use width="1.85" height="1.85" transform="translate(597.13 141.43) scale(1.36)" xlink:href="#New_Symbol_5"/><use width="1.85" height="1.85" transform="translate(423.96 196.08) scale(1.36)" xlink:href="#New_Symbol_5"/><use width="1.85" height="1.85" transform="translate(356.64 176.08) scale(1.36)" xlink:href="#New_Symbol_5"/><use width="1.85" height="1.85" transform="translate(453.45 82.93) scale(1.36)" xlink:href="#New_Symbol_5"/><use width="1.85" height="1.85" transform="translate(597.41 62.61) scale(1.36)" xlink:href="#New_Symbol_5"/><use width="1.85" height="1.85" transform="translate(667.55 54.68) scale(1.36)" xlink:href="#New_Symbol_5"/><use width="1.85" height="1.85" transform="translate(699.8 48.87) scale(1.36)" xlink:href="#New_Symbol_5"/><use width="1.85" height="1.85" transform="translate(815.08 43.3) scale(1.36)" xlink:href="#New_Symbol_5"/><use width="1.85" height="1.85" transform="translate(686.28 104.68) scale(1.36)" xlink:href="#New_Symbol_5"/><use width="1.85" height="1.85" transform="translate(477.34 155.56) scale(1.36)" xlink:href="#New_Symbol_5"/><use width="1.85" height="1.85" transform="translate(494.19 203.66) scale(1.36)" xlink:href="#New_Symbol_5"/><use width="1.85" height="1.85" transform="translate(456.47 231.84) scale(3.36)" xlink:href="#New_Symbol_5"/><use width="1.85" height="1.85" transform="translate(357.41 267.39) scale(1.36)" xlink:href="#New_Symbol_5"/><use width="1.85" height="1.85" transform="translate(245.82 277.79) scale(1.36)" xlink:href="#New_Symbol_5"/><use width="1.85" height="1.85" transform="translate(195.97 332.93) scale(2.32)" xlink:href="#New_Symbol_5"/><use width="1.85" height="1.85" transform="translate(193.57 354.68) scale(2.64)" xlink:href="#New_Symbol_5"/><use width="1.85" height="1.85" transform="translate(160.36 390.75) scale(1.36)" xlink:href="#New_Symbol_5"/><use width="1.85" height="1.85" transform="translate(136.69 451.14) scale(1.36)" xlink:href="#New_Symbol_5"/><use width="1.85" height="1.85" transform="translate(150.32 430.04) scale(1.36)" xlink:href="#New_Symbol_5"/><use width="1.85" height="1.85" transform="translate(142.91 440.75) scale(1.36)" xlink:href="#New_Symbol_5"/><use width="1.85" height="1.85" transform="translate(174.15 445.53) scale(1.36)" xlink:href="#New_Symbol_5"/><use width="1.85" height="1.85" transform="translate(161.55 415.67) scale(1.36)" xlink:href="#New_Symbol_5"/><use width="1.85" height="1.85" transform="translate(153.19 410.53) scale(1.36)" xlink:href="#New_Symbol_5"/><use width="1.85" height="1.85" transform="translate(350.61 494.43) scale(3.75)" xlink:href="#New_Symbol_5"/><use width="1.85" height="1.85" transform="translate(344.85 465.66) scale(1.36)" xlink:href="#New_Symbol_5"/><use width="1.85" height="1.85" transform="translate(375.93 482.06) scale(2.54)" xlink:href="#New_Symbol_5"/><use width="1.85" height="1.85" transform="translate(688.02 326.06) scale(1.36)" xlink:href="#New_Symbol_5"/><use width="1.85" height="1.85" transform="translate(658.31 356.62) scale(1.36)" xlink:href="#New_Symbol_5"/><use width="1.85" height="1.85" transform="translate(647.05 278.67) scale(1.36)" xlink:href="#New_Symbol_5"/><use width="1.85" height="1.85" transform="translate(652.05 260.44) scale(1.36)" xlink:href="#New_Symbol_5"/><use width="1.85" height="1.85" transform="translate(626.38 256.25) scale(1.36)" xlink:href="#New_Symbol_5"/><use width="1.85" height="1.85" transform="translate(764.49 119.87) scale(4.54)" xlink:href="#New_Symbol_5"/><use width="1.85" height="1.85" transform="translate(763.07 90.08) scale(1.56)" xlink:href="#New_Symbol_5"/><use width="1.85" height="1.85" transform="translate(778.09 92.39) scale(1.43)" xlink:href="#New_Symbol_5"/><use width="1.85" height="1.85" transform="translate(811.7 80.77) scale(1.63)" xlink:href="#New_Symbol_5"/><use width="1.85" height="1.85" transform="translate(809.66 72.05) scale(1.36)" xlink:href="#New_Symbol_5"/><use width="1.85" height="1.85" transform="translate(799.01 66.94) scale(1.36)" xlink:href="#New_Symbol_5"/><use width="1.85" height="1.85" transform="translate(797.87 73.09) scale(1.36)" xlink:href="#New_Symbol_5"/><use width="1.85" height="1.85" transform="translate(818.56 148.48) scale(1.36)" xlink:href="#New_Symbol_5"/><use width="1.85" height="1.85" transform="translate(843.45 187.38) scale(1.36)" xlink:href="#New_Symbol_5"/><use width="1.85" height="1.85" transform="translate(916.34 183.87) scale(1.36)" xlink:href="#New_Symbol_5"/><use width="1.85" height="1.85" transform="translate(455.7 100.94) scale(1.36)" xlink:href="#New_Symbol_5"/><use width="1.85" height="1.85" transform="translate(353.74 50.64) scale(3.93)" xlink:href="#New_Symbol_5"/><use width="1.85" height="1.85" transform="translate(326.18 30.59) scale(2.07)" xlink:href="#New_Symbol_5"/><use width="1.85" height="1.85" transform="translate(286.03 43.49) scale(1.36)" xlink:href="#New_Symbol_5"/><use width="1.85" height="1.85" transform="translate(267.69 10.18) scale(1.36)" xlink:href="#New_Symbol_5"/><use width="1.85" height="1.85" transform="translate(277.82 111.69) scale(1.36)" xlink:href="#New_Symbol_5"/><use width="1.85" height="1.85" transform="translate(251.96 91.5) scale(1.36)" xlink:href="#New_Symbol_5"/><use width="1.85" height="1.85" transform="translate(195.49 58.22) scale(1.36)" xlink:href="#New_Symbol_5"/><use width="1.85" height="1.85" transform="translate(211.15 81.99) scale(1.36)" xlink:href="#New_Symbol_5"/><use width="1.85" height="1.85" transform="translate(237.61 137.99) scale(1.36)" xlink:href="#New_Symbol_5"/><use width="1.85" height="1.85" transform="translate(146.24 161.17) scale(1.36)" xlink:href="#New_Symbol_5"/></g><g class="cls-6"><use width="1.85" height="1.85" transform="translate(112.01 89.87) scale(1.36)" xlink:href="#New_Symbol_5"/><use width="1.85" height="1.85" transform="translate(61.68 1.54) scale(1.36)" xlink:href="#New_Symbol_5"/><use width="1.85" height="1.85" transform="translate(7.36 35.28) scale(1.36)" xlink:href="#New_Symbol_5"/><use width="1.85" height="1.85" transform="translate(12.86 54.11) scale(1.36)" xlink:href="#New_Symbol_5"/><use width="1.85" height="1.85" transform="translate(89.71 34.98) scale(1.36)" xlink:href="#New_Symbol_5"/><use width="1.85" height="1.85" transform="translate(136.18 3.52) scale(1.36)" xlink:href="#New_Symbol_5"/><use width="1.85" height="1.85" transform="translate(14.32 153) scale(1.36)" xlink:href="#New_Symbol_5"/><use width="1.85" height="1.85" transform="translate(5.9 186.14) scale(1.36)" xlink:href="#New_Symbol_5"/><use width="1.85" height="1.85" transform="translate(17.33 217.75) scale(1.36)" xlink:href="#New_Symbol_5"/><use width="1.85" height="1.85" transform="translate(58.24 260.03) scale(1.36)" xlink:href="#New_Symbol_5"/><use width="1.85" height="1.85" transform="translate(67.39 248.84) scale(1.36)" xlink:href="#New_Symbol_5"/><use width="1.85" height="1.85" transform="translate(108.75 248.76) scale(1.36)" xlink:href="#New_Symbol_5"/><use width="1.85" height="1.85" transform="translate(114.57 234.77) scale(1.36)" xlink:href="#New_Symbol_5"/><use width="1.85" height="1.85" transform="translate(90.55 202.55) scale(1.36)" xlink:href="#New_Symbol_5"/><use width="1.85" height="1.85" transform="translate(112.76 208.78) scale(1.36)" xlink:href="#New_Symbol_5"/><use width="1.85" height="1.85" transform="translate(143.96 220.34) scale(1.36)" xlink:href="#New_Symbol_5"/><use width="1.85" height="1.85" transform="translate(155.64 237.87) scale(1.36)" xlink:href="#New_Symbol_5"/><use width="1.85" height="1.85" transform="translate(115.22 261.53) scale(1.36)" xlink:href="#New_Symbol_5"/><use width="1.85" height="1.85" transform="translate(-0.86 301.72) scale(1.36)" xlink:href="#New_Symbol_5"/><use width="1.85" height="1.85" transform="translate(34.3 344.12) scale(1.36)" xlink:href="#New_Symbol_5"/><use width="1.85" height="1.85" transform="translate(82.18 300.03) scale(1.36)" xlink:href="#New_Symbol_5"/><use width="1.85" height="1.85" transform="translate(84.48 311.95) scale(1.36)" xlink:href="#New_Symbol_5"/><use width="1.85" height="1.85" transform="translate(36.05 362.92) scale(1.36)" xlink:href="#New_Symbol_5"/><use width="1.85" height="1.85" transform="translate(11.7 447.27) scale(1.36)" xlink:href="#New_Symbol_5"/><use width="1.85" height="1.85" transform="translate(32.7 491.49) scale(1.36)" xlink:href="#New_Symbol_5"/><use width="1.85" height="1.85" transform="translate(104.47 498.37) scale(1.36)" xlink:href="#New_Symbol_5"/><use width="1.85" height="1.85" transform="translate(101.8 405.18) scale(1.36)" xlink:href="#New_Symbol_5"/><use width="1.85" height="1.85" transform="translate(132.45 453.42) scale(1.36)" xlink:href="#New_Symbol_5"/><use width="1.85" height="1.85" transform="translate(126.26 485.42) scale(1.36)" xlink:href="#New_Symbol_5"/><use width="1.85" height="1.85" transform="translate(74.23 453.7) scale(1.36)" xlink:href="#New_Symbol_5"/><use width="1.85" height="1.85" transform="translate(166.41 71.38) scale(1.36)" xlink:href="#New_Symbol_5"/><use width="1.85" height="1.85" transform="translate(172.89 93.53) scale(1.36)" xlink:href="#New_Symbol_5"/><use width="1.85" height="1.85" transform="translate(174.97 104.17) scale(1.36)" xlink:href="#New_Symbol_5"/><use width="1.85" height="1.85" transform="translate(68.53 85.18) scale(1.36)" xlink:href="#New_Symbol_5"/><use width="1.85" height="1.85" transform="translate(933.08 3.53) scale(1.36)" xlink:href="#New_Symbol_5"/><use width="1.85" height="1.85" transform="translate(983.53 60.95) scale(1.36)" xlink:href="#New_Symbol_5"/><use width="1.85" height="1.85" transform="translate(985.41 80.05) scale(1.36)" xlink:href="#New_Symbol_5"/><use width="1.85" height="1.85" transform="translate(899.56 37.31) scale(1.36)" xlink:href="#New_Symbol_5"/><use width="1.85" height="1.85" transform="translate(854.82 8.18) scale(1.36)" xlink:href="#New_Symbol_5"/><use width="1.85" height="1.85" transform="translate(876.12 -1.13) scale(1.36)" xlink:href="#New_Symbol_5"/><use width="1.85" height="1.85" transform="translate(985.18 91.04) scale(1.36)" xlink:href="#New_Symbol_5"/><use width="1.85" height="1.85" transform="translate(993.32 148.49) scale(1.36)" xlink:href="#New_Symbol_5"/><use width="1.85" height="1.85" transform="translate(602.2 -1.94) scale(1.36)" xlink:href="#New_Symbol_5"/><use width="1.85" height="1.85" transform="translate(704.85 15.24) scale(1.36)" xlink:href="#New_Symbol_5"/><use width="1.85" height="1.85" transform="translate(200.19 256.35) scale(1.36)" xlink:href="#New_Symbol_5"/><use width="1.85" height="1.85" transform="translate(913.2 68.38) scale(1.36)" xlink:href="#New_Symbol_5"/><use width="1.85" height="1.85" transform="translate(977.18 128.97) scale(1.36)" xlink:href="#New_Symbol_5"/><use width="1.85" height="1.85" transform="translate(982.83 197.07) scale(1.36)" xlink:href="#New_Symbol_5"/></g><circle class="cls-7" cx="669.54" cy="527.94" r="810.68"/><g class="cls-8"><polygon class="cls-9" points="683.87 365.24 549.79 372.56 560.33 286.68 683.87 365.24"/><polygon class="cls-10" points="788.53 269.82 739.62 460.39 609.77 353.3 788.53 269.82"/><path class="cls-11" d="M871.17,73.35c-2.53,0-157.69,39.63-157.69,39.63l75,156.84,161.06-140Z"/><polygon class="cls-12" points="590.39 190.56 713.48 112.98 788.53 269.82 590.39 190.56"/><polygon class="cls-13" points="609.77 353.3 788.53 269.82 590.39 190.56 609.77 353.3"/><polygon class="cls-14" points="427.09 477.25 549.79 372.56 567.18 450.27 427.09 477.25"/><polygon class="cls-15" points="480.85 320.41 427.09 477.25 567.18 450.27 480.85 320.41"/><path class="cls-16" d="M647.71,591.78c-4.21,0-221.16,88.69-220.62,86.16s0-200.69,0-200.69Z"/><polygon class="cls-17" points="876.23 373.53 788.53 269.82 739.62 460.39 876.23 373.53"/><polygon class="cls-18" points="949.59 129.84 788.53 269.82 921.76 329.69 949.59 129.84"/><polygon class="cls-19" points="739.62 460.39 914.17 603.73 921.76 329.69 739.62 460.39"/><polygon class="cls-20" points="567.18 450.27 739.62 460.39 609.77 353.3 567.18 450.27"/><polygon class="cls-21" points="861.75 560.68 647.71 591.78 739.62 460.39 861.75 560.68"/><polygon class="cls-22" points="590.39 190.56 560.33 286.68 699.15 304.39 590.39 190.56"/><polygon class="cls-23" points="713.48 112.98 733.72 211.64 590.39 190.56 713.48 112.98"/><polygon class="cls-24" points="699.15 304.39 733.72 211.64 590.39 190.56 699.15 304.39"/><polygon class="cls-25" points="871.17 73.35 733.72 211.64 788.53 269.82 871.17 73.35"/><polygon class="cls-26" points="567.18 450.27 683.13 365.1 560.33 286.68 567.18 450.27"/><polygon class="cls-27" points="504.64 577.62 567.18 450.27 427.09 477.25 504.64 577.62"/><polygon class="cls-28" points="683.13 365.1 739.62 460.39 567.18 450.27 683.13 365.1"/><polygon class="cls-29" points="739.62 460.39 674.7 709.13 861.75 560.68 739.62 460.39"/><path class="cls-30" d="M1033.91,377.75s-41.32,206.59-43.85,206.59-75.89,19.39-75.89,19.39Z"/><polygon class="cls-31" points="683.13 365.1 921.76 329.69 699.15 304.39 683.13 365.1"/><polygon class="cls-32" points="1033.91 377.75 921.76 329.69 876.23 373.53 1033.91 377.75"/><polygon class="cls-33" points="949.59 129.84 1033.91 377.75 921.76 329.69 949.59 129.84"/><polyline class="cls-34" points="338.25 38.78 447.38 -16.03 505.65 117.2 504.33 190.56 590.39 190.56"/><polygon class="cls-35" points="674.7 -24.46 629.74 120.57 779.68 -0.85 674.7 -24.46"/><polygon class="cls-36" points="511.95 -16.03 589.37 -50.6 537.4 73.35 511.95 -16.03"/><polygon class="cls-37" points="158.49 155.26 202.67 176.39 128.68 199.9 158.49 155.26"/><polygon class="cls-38" points="346.69 123.94 422.43 64.92 480.85 123.94 346.69 123.94"/><polygon class="cls-39" points="199.18 99.97 190.04 39.14 250.32 19.34 199.18 99.97"/><polygon class="cls-40" points="334.88 247.47 414.24 187.18 476.33 235.25 334.88 247.47"/><polygon class="cls-41" points="399.56 398.83 384.51 321.68 438.3 320.41 399.56 398.83"/><polygon class="cls-42" points="267.42 202.36 259.83 235.25 291.03 218.8 267.42 202.36"/><polygon class="cls-43" points="177.55 455.5 144.27 461.13 171.44 483.62 177.55 455.5"/><polygon class="cls-44" points="98.66 123.94 65.38 129.57 92.55 152.06 98.66 123.94"/><polygon class="cls-45" points="226.1 505.06 263.21 403.89 316.33 472.54 226.1 505.06"/><polygon class="cls-46" points="185.64 406.84 44.3 381.4 125.93 299.8 185.64 406.84"/><polyline class="cls-47" points="427.09 477.25 361.86 393.77 352.59 488.63 291.03 309.45 237.07 271.93"/><polygon class="cls-48" points="739.62 460.39 1033.91 377.75 861.75 560.68 739.62 460.39"/><polygon class="cls-49" points="990.06 584.34 926.77 468.86 914.17 603.73 990.06 584.34"/><polygon class="cls-50" points="926.77 468.86 794.02 549.96 914.17 603.73 926.77 468.86"/><polygon class="cls-51" points="1033.91 377.75 926.77 468.86 990.06 584.34 1033.91 377.75"/><polygon class="cls-52" points="629.74 120.57 713.48 112.98 704.71 79.36 629.74 120.57"/><polygon class="cls-53" points="567.18 450.27 739.62 460.39 674.7 709.13 567.18 450.27"/><polygon class="cls-54" points="480.61 320.62 549.79 372.56 560.33 286.68 480.61 320.62"/><polygon class="cls-55" points="480.61 320.62 609.77 353.3 560.33 286.68 480.61 320.62"/><polygon class="cls-56" points="683.87 365.24 876.23 373.53 807.92 477.25 683.87 365.24"/><polygon class="cls-57" points="794.02 549.96 807.92 477.25 739.62 460.39 794.02 549.96"/><polygon class="cls-58" points="926.77 468.86 807.92 477.25 794.02 549.96 926.77 468.86"/><polygon class="cls-59" points="876.23 373.53 926.77 468.86 807.92 477.25 876.23 373.53"/><polygon class="cls-60" points="713.48 112.98 804.65 180.8 871.17 73.35 713.48 112.98"/><polygon class="cls-61" points="949.59 129.84 804.65 180.8 921.76 329.69 949.59 129.84"/><polygon class="cls-62" points="733.72 211.64 804.65 180.8 788.53 269.82 733.72 211.64"/><polygon class="cls-63" points="567.18 450.27 504.64 577.62 647.71 591.78 567.18 450.27"/><polygon class="cls-64" points="794.02 549.96 647.71 591.78 739.62 460.39 794.02 549.96"/></g><circle class="cls-2" cx="713.01" cy="112.96" r="4.17"/><path class="cls-2" d="M595.64,191a5,5,0,1,1-5-5A5,5,0,0,1,595.64,191Z"/><path class="cls-2" d="M485.57,320.62a5,5,0,1,1-5-4.95A5,5,0,0,1,485.57,320.62Z"/><circle class="cls-2" cx="567.78" cy="450.21" r="6.44"/><circle class="cls-2" cx="683.87" cy="365.24" r="3.28"/><path class="cls-2" d="M879.5,373.53a3.28,3.28,0,1,1-3.27-3.27A3.28,3.28,0,0,1,879.5,373.53Z"/><circle class="cls-2" cx="549.79" cy="372.56" r="3.28"/><path class="cls-2" d="M563.6,286.68a3.28,3.28,0,1,1-3.27-3.27A3.27,3.27,0,0,1,563.6,286.68Z"/><path class="cls-65" d="M365.88,395.56a3.28,3.28,0,1,1-3.28-3.28A3.28,3.28,0,0,1,365.88,395.56Z"/><circle class="cls-65" cx="291.03" cy="310.87" r="3.28"/><path class="cls-65" d="M356.34,488.84a3.28,3.28,0,1,1-3.28-3.27A3.28,3.28,0,0,1,356.34,488.84Z"/><path class="cls-2" d="M508.93,191a3.28,3.28,0,1,1-3.27-3.28A3.27,3.27,0,0,1,508.93,191Z"/><path class="cls-2" d="M387.78,323.24a3.28,3.28,0,1,1-3.27-3.27A3.27,3.27,0,0,1,387.78,323.24Z"/><circle class="cls-65" cx="334.88" cy="247.47" r="3.28"/><path class="cls-65" d="M508.93,117.13a3.28,3.28,0,1,1-3.27-3.27A3.28,3.28,0,0,1,508.93,117.13Z"/><path class="cls-65" d="M783-1.14a3.27,3.27,0,0,1-3.27,3.28,3.28,3.28,0,0,1-3.28-3.28,3.28,3.28,0,0,1,3.28-3.28A3.27,3.27,0,0,1,783-1.14Z"/><circle class="cls-2" cx="698.58" cy="304.32" r="3.28"/><circle class="cls-2" cx="804.65" cy="180.8" r="3.28"/><circle class="cls-2" cx="807.92" cy="477.25" r="3.28"/><path class="cls-2" d="M930.05,468.86a3.28,3.28,0,1,1-3.28-3.27A3.28,3.28,0,0,1,930.05,468.86Z"/><circle class="cls-2" cx="787.97" cy="270.74" r="6.44"/><circle class="cls-2" cx="609.77" cy="353.3" r="6.44"/><circle class="cls-2" cx="921.76" cy="329.69" r="6.44"/><circle class="cls-2" cx="739.62" cy="460.39" r="6.44"/><circle class="cls-2" cx="732.76" cy="212.05" r="6.44"/><path class="cls-2" d="M432.69,477.52a5,5,0,1,1-5-4.95A5,5,0,0,1,432.69,477.52Z"/><path class="cls-2" d="M953.41,129.46a4.1,4.1,0,1,1-4.09-4.09A4.09,4.09,0,0,1,953.41,129.46Z"/><path class="cls-2" d="M875.26,73.35a4.1,4.1,0,1,1-4.09-4.1A4.1,4.1,0,0,1,875.26,73.35Z"/></g></g></g></svg>